<?xml version="1.0" encoding="iso-8859-1"?>
<!-- Generator: Adobe Illustrator 19.0.0, SVG Export Plug-In . SVG Version: 6.00 Build 0)  -->
<svg version="1.1" id="&#x56FE;&#x5C42;_1" xmlns="http://www.w3.org/2000/svg" xmlns:xlink="http://www.w3.org/1999/xlink" x="0px"
	 y="0px" viewBox="0 0 58 50" style="enable-background:new 0 0 58 50;" xml:space="preserve">
<g>
	<path style="fill-rule:evenodd;clip-rule:evenodd;fill:#E1E1E1;" d="M28.996,17.217c-5.084,0-9.207,4.129-9.207,9.222
		c0,5.1,4.123,9.229,9.207,9.229c5.084,0,9.207-4.129,9.207-9.229C38.203,21.346,34.08,17.217,28.996,17.217L28.996,17.217
		L28.996,17.217z M52.059,6.265h-8.647L37.629,0.5H20.362l-5.774,5.765H5.941c-3.17,0-5.765,2.391-5.765,5.765v31.351
		c0,3.364,2.594,6.119,5.765,6.119h46.118c3.166,0,5.765-2.401,5.765-5.765V12.03C57.824,8.656,55.225,6.265,52.059,6.265
		L52.059,6.265L52.059,6.265z M28.996,40.853c-8.06,0-14.384-6.342-14.384-14.406c0-8.072,6.323-14.414,14.384-14.414
		c8.06,0,14.392,6.342,14.392,14.414C43.388,34.511,37.056,40.853,28.996,40.853L28.996,40.853L28.996,40.853z"/>
</g>
</svg>
