<?xml version="1.0" encoding="iso-8859-1"?>
<!-- Generator: Adobe Illustrator 19.0.0, SVG Export Plug-In . SVG Version: 6.00 Build 0)  -->
<svg version="1.1" id="&#x56FE;&#x5C42;_1" xmlns="http://www.w3.org/2000/svg" xmlns:xlink="http://www.w3.org/1999/xlink" x="0px"
	 y="0px" viewBox="0 0 112 35" style="enable-background:new 0 0 112 35;" xml:space="preserve">
<g id="XMLID_54_">
	<g id="XMLID_99_">
		<path id="XMLID_52_" style="fill:#7B181D;" d="M53.502,15.456c-1.541-3.217-2.839-6.105-3.898-8.656h6.563V6.013h-6.848v-4.33
			H46.76c-0.397,0-0.547,0.164-0.547,0.539v3.791h-6.995V6.8h6.707c-1.059,2.551-2.356,5.439-3.893,8.656
			c-0.865,1.685-1.85,2.814-2.958,3.386c1.971,0,3.246-0.115,3.823-0.351c0.721-0.244,1.298-0.798,1.733-1.663
			c0.527-0.957,1.27-2.504,2.232-4.616c0.435-0.912,0.746-1.589,0.937-2.02c0.915,2.212,1.949,4.424,3.102,6.637
			c0.433,0.865,1.012,1.42,1.733,1.663c0.574,0.236,1.852,0.351,3.82,0.351C55.351,18.27,54.367,17.141,53.502,15.456z"/>
		<g id="XMLID_120_">
			<path id="XMLID_127_" style="fill:#7B181D;" d="M68.864,14.521h2.018v-3.967c0.094-1.251-0.626-1.83-2.162-1.735h-3.391
				c-0.865-0.045-1.372,0.293-1.516,1.014V8.819h-2.235v5.844h2.018c-0.818,1.106-1.683,1.829-2.598,2.165
				c2.068,0.288,3.415,0.07,4.042-0.651c0.194-0.191,0.458-0.48,0.793-0.865c0.241-0.288,0.408-0.48,0.505-0.577
				c0.48,0.577,1.009,1.136,1.586,1.661c0.244,0.477,1.467,0.623,3.679,0.432C70.641,16.301,69.729,15.528,68.864,14.521z
				 M68.645,10.623v3.607c-0.433-0.43-0.865-0.959-1.298-1.585c0-0.045,0-0.142,0-0.289v-2.306h-2.237v2.093
				c0,0.43-0.239,0.962-0.721,1.586c-0.192,0.286-0.241,0.341-0.144,0.139c-0.194,0.293-0.338,0.482-0.432,0.584v-4.117
				c0.192-0.671,0.602-0.984,1.228-0.934h2.521C68.382,9.304,68.74,9.714,68.645,10.623z"/>
			<path id="XMLID_124_" style="fill:#7B181D;" d="M74.412,16.177V4.854c0.05-1.683-1.029-2.501-3.241-2.449h-8.586
				c-1.104,0-1.73,0.403-1.872,1.226V2.405h-2.237c-0.321,0-0.505,0.286-0.505,0.584v15.568h2.742v-1.081
				c0.142,0.723,0.718,1.081,1.731,1.081h9.304C73.622,18.655,74.512,17.862,74.412,16.177z M71.603,16.828
				c-0.194,0.721-0.699,1.059-1.517,1.012h-8.218c-0.582,0.047-0.964-0.291-1.156-1.012V4.136c0.239-0.674,0.768-1.01,1.589-1.01
				h7.785c1.109,0,1.661,0.528,1.661,1.584v11.325C71.797,16.374,71.748,16.634,71.603,16.828z"/>
			<path id="XMLID_121_" style="fill:#7B181D;" d="M68.431,4.136h-3.032c-0.674,0-1.079,0.313-1.223,0.934V4.136h-2.237v3.748h2.237
				V6.947c0.047,0.669,0.455,0.987,1.223,0.937h3.246c1.25,0.05,1.849-0.48,1.805-1.591v-0.5C70.45,4.69,69.773,4.136,68.431,4.136z
				 M67.278,7.235h-2.023c-0.671,0.048-1.032-0.241-1.079-0.862V5.575c0.144-0.577,0.477-0.842,1.009-0.793h1.946
				c0.768-0.05,1.131,0.288,1.081,1.012v0.288C68.262,6.947,67.949,7.33,67.278,7.235z"/>
		</g>
		<g id="XMLID_108_">
			<path id="XMLID_45_" style="fill:#7B181D;" d="M83.58,3.703c-0.676-0.532-1.233-1.255-1.661-2.165h-2.886
				c0.097,0.238,0.311,0.699,0.649,1.367C79.821,3.631,81.123,3.892,83.58,3.703z"/>
			<path id="XMLID_44_" style="fill:#7B181D;" d="M89.635,2.905c0.333-0.668,0.549-1.129,0.651-1.367h-2.889
				c-0.383,0.91-0.939,1.633-1.66,2.165C88.194,3.892,89.491,3.631,89.635,2.905z"/>
			<path id="XMLID_114_" style="fill:#7B181D;" d="M91.654,14.089c0-1.489-0.96-2.237-2.884-2.237h-5.991
				c-1.153-0.097-1.75,0.333-1.8,1.298v-1.226h-2.625c-0.398,0-0.547,0.224-0.547,0.597v6.038h3.172v-1.009
				c0.05,0.768,0.627,1.106,1.731,1.009h6.204c1.924,0.097,2.839-0.529,2.74-1.871V14.089z M88.41,16.828
				c0.047,0.721-0.336,1.059-1.156,1.012h-4.758c-0.82,0.047-1.325-0.338-1.516-1.153v-1.231h7.43V16.828z M88.41,14.882h-7.43
				v-0.793c0.192-1.103,0.723-1.613,1.589-1.516h4.397c0.96-0.044,1.445,0.435,1.445,1.442V14.882z"/>
			<path id="XMLID_40_" style="fill:#7B181D;" d="M80.619,8.749c-0.577-0.721-1.059-1.755-1.444-3.1h-1.944
				c0.144,0.671,0.359,1.345,0.647,2.018c0.05,0.192,0.094,0.311,0.144,0.361C78.215,8.605,79.08,8.849,80.619,8.749z"/>
			<path id="XMLID_39_" style="fill:#7B181D;" d="M91.291,8.028c0.05-0.05,0.1-0.169,0.149-0.361
				c0.288-0.721,0.502-1.389,0.649-2.018h-1.951c-0.383,1.345-0.863,2.379-1.442,3.1C90.232,8.849,91.102,8.605,91.291,8.028z"/>
			<path id="XMLID_109_" style="fill:#7B181D;" d="M88.41,9.619V4.854h4.253V4.208H76.652v0.647h4.184v4.765h-4.688v0.641H93.17
				V9.619H88.41z M85.596,9.619h-1.874V4.854h1.874V9.619z"/>
		</g>
		<path id="XMLID_36_" style="fill:#7B181D;" d="M95.477,4.277c0.144,1.395,1.636,2.016,4.474,1.877
			c-1.014-0.385-1.71-1.827-2.098-4.33h-2.55c-0.247,0-0.368,0.145-0.313,0.391c0.191,0.84,0.33,1.409,0.417,1.702
			C95.452,4.113,95.477,4.23,95.477,4.277z"/>
		<path id="XMLID_102_" style="fill:#7B181D;" d="M110.551,15.168V3.193h1.084V2.473H99.086v0.721h1.367v12.551l-2.018,0.074v0.79
			l9.376-0.574v2.807h2.739v-2.953l1.228-0.07v-0.723L110.551,15.168z M107.812,15.312l-4.544,0.291v-3.898h4.544V15.312z
			 M107.812,11.056h-4.544V7.524h4.544V11.056z M107.812,6.873h-4.544V3.193h4.544V6.873z"/>
		<path id="XMLID_31_" style="fill:#7B181D;" d="M99.588,11.705c-2.884-0.142-4.328,0.745-4.328,2.669
			c-0.141,0.773-0.313,1.83-0.505,3.174c-0.097,0.577-0.169,0.984-0.219,1.226h2.958c0.244-1.395,0.457-2.789,0.651-4.184
			C98.288,13.104,98.771,12.142,99.588,11.705z"/>
		<path id="XMLID_30_" style="fill:#7B181D;" d="M97.351,6.512h-2.377c-0.353,0-0.447,0.204-0.363,0.581
			c0.189,0.91,0.335,1.537,0.433,1.872c0.05,1.35,1.516,1.949,4.399,1.805C98.483,10.435,97.786,9.018,97.351,6.512z"/>
	</g>
	<g id="XMLID_77_">
		<path id="XMLID_97_" style="fill:#7B181D;" d="M47.681,23.076v0.621h-3.492v9.025h-1.622v-9.025h-3.492v-0.621H47.681z"/>
		<path id="XMLID_94_" style="fill:#7B181D;" d="M50.053,32.878c-0.507,0-0.977-0.09-1.418-0.28c-0.44-0.19-0.828-0.448-1.156-0.777
			c-0.329-0.322-0.591-0.702-0.781-1.138c-0.19-0.438-0.288-0.904-0.288-1.405c0-0.596,0.085-1.147,0.263-1.653
			c0.178-0.509,0.423-0.948,0.737-1.318c0.319-0.368,0.707-0.655,1.157-0.867c0.449-0.207,0.947-0.309,1.495-0.309
			c0.489,0,0.938,0.086,1.344,0.255c0.405,0.169,0.755,0.4,1.047,0.692c0.292,0.288,0.516,0.618,0.677,0.994
			c0.161,0.384,0.243,0.784,0.243,1.196h-5.547c0,0.497,0.065,0.959,0.195,1.388c0.129,0.426,0.312,0.796,0.541,1.103
			c0.228,0.311,0.506,0.555,0.833,0.725c0.321,0.178,0.672,0.268,1.057,0.268c0.322,0,0.633-0.051,0.928-0.158
			c0.297-0.105,0.563-0.241,0.804-0.407c0.241-0.17,0.446-0.363,0.614-0.581c0.168-0.222,0.285-0.443,0.355-0.675l0.426,0.185
			c-0.112,0.38-0.282,0.743-0.521,1.076c-0.236,0.339-0.512,0.626-0.828,0.874c-0.317,0.249-0.662,0.445-1.042,0.592
			C50.813,32.807,50.435,32.878,50.053,32.878z M51.526,27.676c0-0.282-0.051-0.548-0.149-0.791
			c-0.097-0.236-0.234-0.451-0.409-0.628c-0.171-0.175-0.375-0.317-0.608-0.422c-0.234-0.1-0.485-0.153-0.75-0.153
			c-0.219,0-0.438,0.054-0.643,0.153c-0.204,0.105-0.385,0.244-0.545,0.417c-0.156,0.175-0.292,0.38-0.395,0.623
			c-0.104,0.248-0.17,0.509-0.19,0.794L51.526,27.676z"/>
		<path id="XMLID_91_" style="fill:#7B181D;" d="M60.538,32.622h-1.481v-1.018c-0.175,0.132-0.348,0.27-0.516,0.407
			c-0.171,0.136-0.351,0.263-0.548,0.38c-0.192,0.119-0.412,0.209-0.65,0.28c-0.239,0.075-0.511,0.107-0.828,0.107
			c-0.293,0-0.551-0.044-0.79-0.141c-0.234-0.095-0.438-0.227-0.599-0.388c-0.171-0.168-0.297-0.363-0.385-0.589
			c-0.087-0.226-0.131-0.475-0.131-0.738c0-0.319,0.063-0.606,0.19-0.86c0.127-0.256,0.302-0.489,0.522-0.692
			c0.219-0.2,0.472-0.38,0.769-0.541c0.292-0.156,0.604-0.297,0.93-0.421c0.326-0.125,0.662-0.234,1.013-0.331
			c0.351-0.1,0.691-0.188,1.023-0.271v-0.462c0-0.336-0.034-0.618-0.1-0.853c-0.071-0.236-0.163-0.424-0.29-0.57
			c-0.122-0.139-0.273-0.246-0.448-0.309c-0.183-0.058-0.385-0.093-0.604-0.093c-0.248,0-0.453,0.037-0.609,0.1
			c-0.155,0.064-0.28,0.153-0.37,0.256c-0.088,0.107-0.148,0.227-0.183,0.363c-0.031,0.139-0.046,0.268-0.046,0.411
			c0,0.129-0.01,0.258-0.035,0.375c-0.022,0.122-0.058,0.224-0.112,0.311c-0.056,0.091-0.131,0.166-0.227,0.224
			c-0.095,0.051-0.217,0.08-0.363,0.08c-0.114,0-0.219-0.025-0.316-0.066c-0.092-0.041-0.178-0.105-0.246-0.182
			c-0.071-0.076-0.122-0.176-0.159-0.28c-0.038-0.105-0.054-0.222-0.054-0.346c0-0.246,0.079-0.469,0.242-0.689
			c0.163-0.207,0.377-0.392,0.65-0.546c0.272-0.153,0.589-0.282,0.954-0.368c0.366-0.09,0.745-0.134,1.15-0.134
			c0.489,0,0.901,0.049,1.24,0.142c0.336,0.093,0.611,0.229,0.815,0.397c0.209,0.173,0.361,0.38,0.451,0.624
			c0.095,0.246,0.139,0.516,0.139,0.811V32.622z M59.057,28.284c-0.214,0.071-0.434,0.146-0.662,0.234
			c-0.226,0.09-0.453,0.185-0.672,0.297c-0.219,0.107-0.428,0.227-0.623,0.355c-0.2,0.127-0.375,0.261-0.526,0.4
			c-0.146,0.146-0.268,0.297-0.355,0.46c-0.088,0.163-0.132,0.331-0.132,0.506c0,0.18,0.034,0.351,0.102,0.516
			c0.068,0.163,0.156,0.305,0.265,0.426c0.11,0.124,0.236,0.219,0.385,0.292c0.141,0.071,0.295,0.107,0.451,0.107
			c0.171,0,0.326-0.017,0.478-0.068c0.151-0.044,0.297-0.1,0.436-0.175c0.139-0.073,0.28-0.161,0.421-0.259
			c0.142-0.102,0.285-0.204,0.434-0.316V28.284z"/>
		<path id="XMLID_89_" style="fill:#7B181D;" d="M69.56,22.975v0.622h-5.082v3.446h3.4v0.628h-3.4v4.326h5.082v0.626h-6.702v-9.647
			H69.56z"/>
		<path id="XMLID_87_" style="fill:#7B181D;" d="M70.962,32.622h-0.808l3.117-3.801l-2.635-3.629h1.741l1.819,2.491l2.045-2.491
			h0.804l-2.467,3.012l3.193,4.418h-1.746l-2.367-3.285L70.962,32.622z"/>
		<path id="XMLID_85_" style="fill:#7B181D;" d="M80.215,31.321c0.11,0,0.214,0.017,0.31,0.056c0.092,0.044,0.173,0.093,0.248,0.164
			c0.07,0.068,0.127,0.148,0.168,0.245c0.042,0.09,0.063,0.19,0.063,0.295c0,0.105-0.022,0.202-0.063,0.297
			c-0.041,0.098-0.098,0.178-0.168,0.251c-0.075,0.068-0.156,0.119-0.248,0.158c-0.096,0.041-0.2,0.061-0.31,0.061
			c-0.109,0-0.214-0.019-0.311-0.061c-0.097-0.039-0.18-0.09-0.253-0.158c-0.071-0.073-0.127-0.154-0.168-0.251
			c-0.046-0.095-0.061-0.192-0.061-0.297c0-0.105,0.015-0.204,0.061-0.295c0.041-0.098,0.097-0.178,0.168-0.245
			c0.073-0.071,0.156-0.119,0.253-0.164C80.001,31.339,80.106,31.321,80.215,31.321z"/>
		<path id="XMLID_83_" style="fill:#7B181D;" d="M86.9,32.778c-0.487,0-0.94-0.095-1.374-0.282c-0.424-0.195-0.792-0.456-1.108-0.79
			c-0.319-0.331-0.568-0.718-0.753-1.169c-0.182-0.451-0.272-0.928-0.272-1.437c0-0.562,0.1-1.086,0.302-1.585
			c0.202-0.492,0.477-0.925,0.827-1.29c0.351-0.371,0.76-0.663,1.227-0.877c0.466-0.21,0.965-0.317,1.501-0.317
			c0.416,0,0.798,0.044,1.149,0.134c0.351,0.085,0.657,0.217,0.908,0.375c0.256,0.156,0.453,0.343,0.597,0.565
			c0.144,0.215,0.214,0.448,0.214,0.699c0,0.112-0.029,0.217-0.088,0.317c-0.058,0.094-0.131,0.184-0.224,0.262
			c-0.095,0.069-0.2,0.127-0.314,0.176c-0.119,0.039-0.239,0.058-0.358,0.058c-0.136,0-0.255-0.024-0.361-0.068
			c-0.107-0.048-0.197-0.107-0.273-0.187c-0.078-0.073-0.136-0.161-0.175-0.261c-0.038-0.097-0.058-0.192-0.058-0.297
			c0-0.171-0.016-0.328-0.054-0.482c-0.039-0.151-0.102-0.28-0.194-0.39c-0.093-0.105-0.22-0.19-0.38-0.255
			c-0.161-0.063-0.368-0.095-0.618-0.095c-0.334,0-0.641,0.076-0.906,0.209c-0.268,0.134-0.497,0.316-0.677,0.548
			c-0.185,0.228-0.331,0.502-0.424,0.814c-0.097,0.314-0.144,0.645-0.144,0.996c0,0.475,0.061,0.925,0.183,1.349
			c0.127,0.423,0.302,0.796,0.526,1.113c0.228,0.321,0.501,0.572,0.82,0.757c0.317,0.19,0.675,0.285,1.065,0.285
			c0.346,0,0.647-0.056,0.901-0.168c0.253-0.104,0.475-0.249,0.662-0.438c0.185-0.185,0.346-0.399,0.482-0.645
			c0.132-0.238,0.251-0.499,0.361-0.772l0.443,0.18c-0.127,0.468-0.295,0.884-0.507,1.252c-0.215,0.373-0.463,0.682-0.75,0.935
			c-0.291,0.258-0.618,0.448-0.979,0.58C87.718,32.711,87.324,32.778,86.9,32.778z"/>
		<path id="XMLID_80_" style="fill:#7B181D;" d="M95.318,32.778c-0.568,0-1.093-0.098-1.573-0.295
			c-0.485-0.202-0.901-0.47-1.249-0.808c-0.346-0.341-0.618-0.745-0.816-1.206c-0.197-0.457-0.295-0.95-0.295-1.47
			c0-0.553,0.098-1.067,0.295-1.546c0.198-0.485,0.47-0.901,0.816-1.259c0.348-0.361,0.765-0.641,1.249-0.852
			c0.48-0.207,1.005-0.31,1.573-0.31c0.567,0,1.091,0.095,1.571,0.283c0.478,0.19,0.886,0.451,1.24,0.779
			c0.351,0.331,0.626,0.723,0.821,1.164c0.197,0.446,0.297,0.921,0.297,1.428c0,0.568-0.1,1.093-0.297,1.592
			c-0.195,0.497-0.47,0.933-0.821,1.298c-0.353,0.372-0.762,0.672-1.24,0.884C96.409,32.671,95.885,32.778,95.318,32.778z
			 M95.594,32.231c0.292,0,0.56-0.075,0.801-0.224c0.241-0.146,0.453-0.351,0.631-0.597c0.176-0.258,0.312-0.553,0.414-0.889
			c0.098-0.341,0.144-0.691,0.144-1.066c0-0.541-0.046-1.045-0.141-1.515c-0.09-0.467-0.241-0.877-0.448-1.228
			c-0.207-0.353-0.48-0.631-0.811-0.83c-0.332-0.2-0.741-0.302-1.222-0.302c-0.251,0-0.492,0.08-0.723,0.219
			c-0.229,0.139-0.435,0.338-0.612,0.587c-0.18,0.253-0.321,0.543-0.424,0.875c-0.107,0.332-0.163,0.687-0.163,1.057
			c0,0.541,0.058,1.05,0.173,1.522c0.122,0.478,0.28,0.894,0.502,1.247c0.214,0.353,0.482,0.631,0.803,0.836
			C94.834,32.128,95.194,32.231,95.594,32.231z"/>
		<path id="XMLID_78_" style="fill:#7B181D;" d="M100.664,25.182h1.476v1.393c0.188-0.207,0.402-0.404,0.638-0.589
			c0.239-0.185,0.482-0.351,0.735-0.492c0.253-0.143,0.502-0.258,0.758-0.338c0.256-0.085,0.494-0.125,0.718-0.125
			c0.224,0,0.443,0.039,0.672,0.117c0.224,0.078,0.428,0.185,0.621,0.329c0.192,0.141,0.355,0.309,0.499,0.502
			c0.134,0.19,0.224,0.399,0.268,0.626c0.122-0.22,0.292-0.424,0.507-0.614c0.219-0.19,0.457-0.361,0.716-0.502
			c0.263-0.138,0.543-0.253,0.833-0.334c0.292-0.085,0.574-0.125,0.858-0.125c0.282,0,0.545,0.063,0.793,0.188
			c0.248,0.122,0.462,0.29,0.648,0.499c0.185,0.209,0.328,0.458,0.438,0.743c0.104,0.283,0.158,0.582,0.158,0.904v5.258h-1.483
			v-5.044c0-0.209-0.039-0.404-0.105-0.594c-0.075-0.185-0.17-0.346-0.29-0.487c-0.122-0.141-0.263-0.251-0.424-0.337
			c-0.161-0.083-0.326-0.124-0.509-0.124c-0.205,0-0.412,0.029-0.621,0.08c-0.209,0.053-0.409,0.134-0.599,0.229
			c-0.19,0.097-0.36,0.209-0.521,0.341c-0.155,0.132-0.282,0.263-0.372,0.407v5.528H105.6v-5.044c0-0.209-0.036-0.404-0.105-0.594
			c-0.073-0.185-0.171-0.346-0.297-0.487c-0.127-0.141-0.268-0.251-0.429-0.337c-0.161-0.083-0.333-0.124-0.511-0.124
			c-0.188,0-0.385,0.029-0.587,0.085c-0.2,0.054-0.397,0.137-0.59,0.231c-0.19,0.102-0.367,0.21-0.533,0.339
			c-0.161,0.127-0.302,0.258-0.409,0.402v5.528h-1.476V25.182z"/>
	</g>
	<g id="XMLID_55_">
		<polygon id="XMLID_17_" style="fill:#E84416;" points="9.167,24.822 11.128,24.822 11.128,24.641 9.643,24.641 9.643,23.379 
			10.635,23.379 10.635,23.2 9.643,23.2 9.643,22.192 11.128,22.192 11.128,22.011 9.167,22.011 		"/>
		<polygon id="XMLID_16_" style="fill:#E84416;" points="12.835,23.093 12.647,23.093 12.172,23.673 11.747,23.093 11.341,23.093 
			11.952,23.937 11.226,24.82 11.416,24.82 12.044,24.058 12.599,24.82 13.003,24.82 12.26,23.795 		"/>
		<path id="XMLID_15_" style="fill:#E84416;" d="M14.449,24.307c-0.031,0.058-0.068,0.105-0.112,0.15
			c-0.043,0.042-0.093,0.074-0.152,0.1c-0.061,0.026-0.131,0.037-0.211,0.037c-0.091,0-0.174-0.021-0.248-0.064
			c-0.076-0.043-0.139-0.102-0.193-0.176c-0.053-0.075-0.095-0.16-0.123-0.259c-0.027-0.099-0.042-0.205-0.042-0.315
			c0-0.083,0.012-0.159,0.034-0.231c0.022-0.072,0.055-0.134,0.098-0.189c0.044-0.054,0.096-0.098,0.158-0.128
			c0.062-0.033,0.131-0.049,0.212-0.049c0.059,0,0.106,0.009,0.144,0.023c0.037,0.014,0.066,0.035,0.087,0.058
			c0.023,0.026,0.037,0.056,0.045,0.09c0.01,0.035,0.013,0.074,0.013,0.113c0,0.023,0.003,0.047,0.012,0.071
			c0.012,0.023,0.025,0.043,0.043,0.061c0.017,0.017,0.037,0.032,0.064,0.041c0.023,0.011,0.051,0.017,0.084,0.017
			c0.027,0,0.055-0.006,0.083-0.016c0.027-0.01,0.051-0.023,0.072-0.04c0.024-0.015,0.04-0.036,0.054-0.059
			c0.014-0.024,0.019-0.049,0.019-0.075c0-0.058-0.016-0.113-0.048-0.162c-0.034-0.05-0.08-0.093-0.139-0.13
			c-0.059-0.038-0.13-0.067-0.212-0.087c-0.081-0.018-0.174-0.031-0.271-0.031c-0.122,0-0.24,0.023-0.349,0.075
			c-0.108,0.048-0.204,0.116-0.286,0.201c-0.079,0.085-0.144,0.186-0.192,0.301c-0.049,0.113-0.073,0.238-0.073,0.368
			c0,0.12,0.024,0.23,0.064,0.332c0.043,0.106,0.1,0.194,0.175,0.273c0.075,0.078,0.162,0.137,0.261,0.183
			c0.099,0.043,0.205,0.066,0.318,0.066c0.1,0,0.192-0.015,0.276-0.048c0.086-0.029,0.161-0.073,0.228-0.133
			c0.068-0.058,0.129-0.132,0.176-0.217c0.052-0.087,0.088-0.183,0.118-0.292l-0.104-0.042C14.509,24.191,14.48,24.25,14.449,24.307
			z"/>
		<path id="XMLID_14_" style="fill:#E84416;" d="M16.286,23.211c-0.04-0.046-0.088-0.084-0.138-0.113
			c-0.054-0.026-0.11-0.04-0.172-0.04c-0.115,0-0.232,0.028-0.346,0.087c-0.112,0.056-0.222,0.145-0.326,0.263v-1.203h-0.1
			l-0.245,0.098v2.517h0.344v-1.28c0.078-0.074,0.16-0.135,0.248-0.181c0.084-0.046,0.165-0.069,0.238-0.069
			c0.082,0,0.15,0.029,0.2,0.088c0.052,0.061,0.077,0.146,0.077,0.26v1.182h0.345v-1.24c0-0.074-0.012-0.14-0.035-0.203
			C16.356,23.313,16.324,23.258,16.286,23.211z"/>
		<path id="XMLID_70_" style="fill:#E84416;" d="M17.956,23.182c-0.05-0.04-0.112-0.071-0.19-0.093
			c-0.08-0.018-0.175-0.031-0.289-0.031c-0.094,0-0.183,0.013-0.269,0.031c-0.084,0.02-0.157,0.049-0.222,0.084
			c-0.064,0.036-0.115,0.079-0.152,0.128c-0.037,0.05-0.058,0.103-0.058,0.16c0,0.058,0.018,0.105,0.052,0.144
			c0.031,0.039,0.076,0.06,0.131,0.06c0.034,0,0.064-0.007,0.084-0.02c0.022-0.012,0.04-0.031,0.051-0.05
			c0.012-0.022,0.023-0.047,0.028-0.075c0.005-0.029,0.007-0.056,0.007-0.086c0-0.034,0.005-0.065,0.01-0.098
			c0.01-0.029,0.025-0.058,0.046-0.083c0.021-0.022,0.049-0.043,0.086-0.058c0.035-0.015,0.082-0.023,0.142-0.023
			c0.052,0,0.098,0.008,0.139,0.022c0.041,0.014,0.078,0.036,0.106,0.07c0.028,0.033,0.05,0.079,0.065,0.131
			c0.015,0.056,0.024,0.121,0.024,0.2v0.109c-0.077,0.019-0.156,0.038-0.239,0.061c-0.08,0.025-0.159,0.05-0.236,0.078
			c-0.076,0.029-0.149,0.059-0.217,0.096c-0.069,0.039-0.127,0.079-0.18,0.127c-0.051,0.047-0.09,0.101-0.119,0.161
			c-0.031,0.059-0.047,0.126-0.047,0.202c0,0.061,0.012,0.117,0.031,0.169c0.02,0.054,0.051,0.1,0.089,0.137
			c0.039,0.04,0.086,0.069,0.14,0.092c0.055,0.021,0.118,0.033,0.184,0.033c0.073,0,0.137-0.008,0.194-0.024
			c0.058-0.018,0.107-0.039,0.153-0.066c0.044-0.027,0.088-0.057,0.129-0.089c0.038-0.03,0.078-0.061,0.118-0.094v0.235h0.345
			v-1.305c0-0.069-0.01-0.133-0.033-0.189C18.038,23.269,18.004,23.221,17.956,23.182z M17.747,24.46
			c-0.034,0.026-0.066,0.049-0.1,0.071c-0.033,0.024-0.065,0.045-0.099,0.062c-0.034,0.019-0.068,0.032-0.103,0.043
			c-0.033,0.008-0.069,0.015-0.11,0.015c-0.036,0-0.071-0.009-0.105-0.026c-0.033-0.017-0.063-0.04-0.092-0.069
			c-0.025-0.028-0.044-0.061-0.06-0.098c-0.016-0.04-0.023-0.077-0.023-0.123c0-0.061,0.022-0.117,0.067-0.171
			c0.045-0.054,0.099-0.102,0.167-0.147c0.069-0.045,0.144-0.083,0.225-0.116c0.081-0.035,0.159-0.063,0.233-0.086V24.46z"/>
		<path id="XMLID_11_" style="fill:#E84416;" d="M19.878,23.211c-0.04-0.046-0.085-0.084-0.139-0.113
			c-0.052-0.026-0.109-0.04-0.17-0.04c-0.117,0-0.233,0.028-0.347,0.087c-0.112,0.056-0.22,0.145-0.327,0.263v-0.317h-0.344v1.731
			h0.344V23.54c0.04-0.036,0.081-0.071,0.122-0.1c0.042-0.032,0.084-0.059,0.125-0.081c0.043-0.023,0.084-0.039,0.125-0.051
			c0.041-0.011,0.081-0.017,0.116-0.017c0.082,0,0.148,0.029,0.2,0.088c0.051,0.061,0.077,0.146,0.077,0.26v1.184h0.345V23.58
			c0-0.074-0.012-0.14-0.037-0.203C19.948,23.313,19.917,23.258,19.878,23.211z"/>
		<path id="XMLID_65_" style="fill:#E84416;" d="M21.55,23.134c-0.035-0.015-0.073-0.028-0.116-0.042
			c-0.045-0.01-0.091-0.018-0.141-0.027c-0.049-0.006-0.103-0.008-0.155-0.008c-0.107,0-0.207,0.017-0.3,0.048
			c-0.092,0.033-0.172,0.077-0.24,0.134c-0.07,0.056-0.123,0.121-0.162,0.198c-0.039,0.075-0.059,0.156-0.059,0.242
			c0,0.115,0.033,0.217,0.098,0.303c0.065,0.089,0.157,0.159,0.274,0.209c-0.048,0.017-0.096,0.04-0.138,0.067
			c-0.041,0.029-0.078,0.061-0.11,0.096c-0.031,0.035-0.058,0.071-0.074,0.109c-0.021,0.037-0.029,0.071-0.029,0.109
			c0,0.022,0.004,0.046,0.015,0.065c0.013,0.02,0.027,0.042,0.048,0.06c0.021,0.017,0.046,0.031,0.073,0.046
			c0.027,0.012,0.057,0.025,0.089,0.036c-0.043,0.032-0.088,0.068-0.133,0.105c-0.047,0.04-0.087,0.076-0.125,0.118
			c-0.036,0.038-0.067,0.08-0.091,0.125c-0.024,0.043-0.036,0.089-0.036,0.136c0,0.055,0.017,0.104,0.053,0.146
			c0.036,0.043,0.087,0.081,0.159,0.111c0.071,0.032,0.159,0.055,0.267,0.073c0.106,0.015,0.233,0.025,0.374,0.025
			c0.163,0,0.306-0.015,0.431-0.045c0.127-0.033,0.236-0.078,0.326-0.136c0.088-0.057,0.155-0.126,0.201-0.208
			c0.048-0.081,0.072-0.174,0.072-0.272c0-0.058-0.009-0.107-0.025-0.153c-0.017-0.048-0.047-0.087-0.086-0.119
			c-0.043-0.033-0.095-0.061-0.165-0.079c-0.069-0.021-0.154-0.033-0.254-0.036l-0.643-0.029c-0.07-0.001-0.124-0.013-0.163-0.036
			c-0.037-0.02-0.056-0.049-0.056-0.084c0-0.037,0.013-0.073,0.035-0.107c0.021-0.035,0.049-0.067,0.082-0.095
			c0.034,0.012,0.074,0.021,0.121,0.028c0.045,0.008,0.089,0.013,0.132,0.013c0.118,0,0.226-0.015,0.325-0.042
			c0.1-0.033,0.186-0.074,0.257-0.125c0.071-0.053,0.125-0.116,0.165-0.192c0.04-0.073,0.059-0.157,0.059-0.246
			c0-0.058-0.009-0.115-0.03-0.173c-0.021-0.061-0.046-0.113-0.082-0.16h0.33v-0.142h-0.495
			C21.611,23.166,21.584,23.15,21.55,23.134z M20.848,24.824c0.059,0.006,0.123,0.01,0.197,0.017
			c0.072,0.005,0.152,0.009,0.237,0.014c0.084,0.003,0.171,0.003,0.253,0.003c0.132,0,0.238,0.018,0.316,0.053
			c0.078,0.035,0.115,0.092,0.115,0.17c0,0.037-0.015,0.074-0.049,0.112c-0.034,0.036-0.081,0.07-0.146,0.1
			c-0.064,0.029-0.141,0.052-0.232,0.07c-0.091,0.022-0.196,0.029-0.311,0.029c-0.109,0-0.205-0.005-0.287-0.022
			c-0.079-0.016-0.15-0.038-0.205-0.065c-0.053-0.029-0.096-0.058-0.122-0.095c-0.026-0.034-0.039-0.073-0.039-0.112
			c0-0.048,0.013-0.098,0.039-0.153c0.027-0.054,0.068-0.1,0.119-0.14C20.754,24.809,20.794,24.816,20.848,24.824z M21.503,23.914
			c-0.02,0.052-0.048,0.096-0.084,0.133c-0.033,0.038-0.074,0.069-0.116,0.089c-0.046,0.026-0.094,0.034-0.144,0.034
			c-0.059,0-0.113-0.012-0.161-0.042c-0.049-0.029-0.091-0.068-0.127-0.117c-0.035-0.051-0.061-0.11-0.081-0.175
			c-0.019-0.069-0.028-0.142-0.028-0.222c0-0.064,0.006-0.125,0.019-0.182c0.013-0.059,0.034-0.107,0.06-0.149
			c0.028-0.042,0.064-0.074,0.105-0.099c0.042-0.023,0.091-0.036,0.151-0.036c0.058,0,0.115,0.016,0.168,0.046
			c0.052,0.03,0.099,0.071,0.139,0.126c0.038,0.053,0.07,0.12,0.093,0.191c0.023,0.072,0.037,0.15,0.037,0.236
			C21.534,23.807,21.523,23.861,21.503,23.914z"/>
		<path id="XMLID_62_" style="fill:#E84416;" d="M23.854,24.328c-0.04,0.053-0.09,0.095-0.142,0.136
			c-0.058,0.042-0.121,0.073-0.188,0.096c-0.069,0.024-0.141,0.034-0.214,0.034c-0.091,0-0.173-0.019-0.249-0.061
			c-0.074-0.039-0.14-0.097-0.195-0.168c-0.053-0.074-0.096-0.159-0.127-0.256c-0.03-0.099-0.043-0.208-0.043-0.324h1.293
			c0-0.096-0.018-0.189-0.055-0.276c-0.038-0.089-0.092-0.164-0.159-0.233c-0.068-0.065-0.15-0.119-0.245-0.159
			c-0.095-0.04-0.198-0.059-0.311-0.059c-0.131,0-0.246,0.023-0.353,0.072c-0.102,0.05-0.193,0.117-0.269,0.202
			c-0.075,0.086-0.132,0.188-0.171,0.304c-0.042,0.117-0.064,0.248-0.064,0.386c0,0.113,0.024,0.223,0.07,0.326
			c0.044,0.1,0.104,0.19,0.181,0.265c0.077,0.076,0.169,0.136,0.272,0.179c0.103,0.044,0.212,0.066,0.33,0.066
			c0.089,0,0.178-0.015,0.265-0.05c0.087-0.033,0.167-0.079,0.242-0.137c0.075-0.058,0.14-0.126,0.195-0.207
			c0.054-0.078,0.094-0.159,0.119-0.247l-0.099-0.046C23.92,24.226,23.893,24.279,23.854,24.328z M22.74,23.464
			c0.027-0.056,0.058-0.106,0.096-0.147c0.036-0.042,0.077-0.071,0.125-0.096c0.048-0.024,0.097-0.035,0.149-0.035
			c0.063,0,0.122,0.011,0.175,0.035c0.055,0.025,0.103,0.054,0.144,0.096c0.042,0.042,0.074,0.091,0.096,0.148
			c0.023,0.056,0.036,0.118,0.036,0.184l-0.862-0.002C22.703,23.58,22.716,23.519,22.74,23.464z"/>
		<path id="XMLID_56_" style="fill:#E84416;" d="M28.344,0.358H5.967C2.671,0.358,0,3.022,0,6.307v22.414
			c0,3.287,2.671,5.95,5.967,5.95h22.377c3.297,0,5.968-2.663,5.968-5.95V6.307C34.311,3.022,31.641,0.358,28.344,0.358z
			 M17.167,30.498c-1.856,0-3.623-0.377-5.23-1.059c-0.868-0.35-1.385-0.639-2.478-0.668H5.184v-3.808c0-1.028,0-1.813-0.576-3.113
			c-0.104-0.233-0.141-0.387-0.135-0.485c-0.441-1.322-0.682-2.734-0.682-4.204c0-1.564,0.272-3.064,0.767-4.458
			c0.298,0.857,1.094,1.464,2.063,1.479h0.047c0.474,0,0.965-0.178,1.505-0.548l0.664-0.476v5.151c0,0.21,0.011,0.437,0.03,0.677
			c0.023,0.265,0.113,0.514,0.267,0.741c0.04,0.059,0.086,0.117,0.143,0.172c0.105,0.111,0.235,0.209,0.389,0.298
			c0.341,0.205,0.721,0.313,1.237,0.352c0.666,0.05,1.226-0.168,1.497-0.355c0.029-0.017,0.058-0.034,0.084-0.053
			c0.068-0.043,0.131-0.093,0.182-0.136l0.979-0.708c0.043,0.048,0.089,0.094,0.134,0.137c0.359,0.351,0.785,0.621,1.264,0.802
			c0.108,0.04,0.214,0.073,0.323,0.105V20.34c0.01,0.005,0.017,0.008,0.028,0.012c0,0,0.039,0.009,0.039,0.01
			c0.647,0.178,1.173,0.216,1.786,0.128c0.587-0.072,0.944-0.337,1.173-0.51l1.479-1.069c0.028,0.244,0.098,0.461,0.212,0.647
			c0.149,0.242,0.347,0.435,0.589,0.574c0.228,0.131,0.486,0.229,0.765,0.291c0.271,0.058,0.541,0.087,0.801,0.087
			c0.576,0,1.029-0.086,1.343-0.258c0.236-0.127,0.439-0.343,0.599-0.641c0.096,0.223,0.237,0.409,0.422,0.559
			c0.284,0.227,0.715,0.34,1.281,0.34c0.236,0,0.562,0,0.852-0.135c0.292-0.136,0.555-0.352,0.652-0.455
			c0.304-0.27,0.641-0.391,1.113-0.391c0.448,0.006,0.827,0.174,1.095,0.484c0.224,0.26,0.35,0.618,0.376,1.017
			C28.307,26.508,23.206,30.498,17.167,30.498z M15.029,16.621v-1.015c0.01-0.287,0.028-0.59,0.052-0.906
			c0.025-0.305,0.081-0.596,0.171-0.864c0.086-0.255,0.211-0.461,0.384-0.626c0.158-0.151,0.395-0.228,0.7-0.228
			c0.207,0,0.362,0.049,0.469,0.147c0.118,0.106,0.205,0.24,0.259,0.394c0.056,0.167,0.088,0.336,0.099,0.501
			c0.01,0.18,0.015,0.33,0.015,0.451l-0.002,1.602l-2.118,1.53C15.038,17.276,15.029,16.947,15.029,16.621z M22.179,18.358
			c0-0.316,0.046-0.575,0.134-0.767c0.081-0.177,0.191-0.356,0.341-0.549c0.154-0.197,0.351-0.396,0.494-0.497l0.823-0.596v2.204
			c0,0.314-0.03,0.583-0.087,0.803c-0.057,0.211-0.132,0.383-0.226,0.509c-0.088,0.123-0.188,0.213-0.297,0.268
			c-0.106,0.057-0.214,0.083-0.326,0.083c-0.198,0-0.353-0.045-0.458-0.138c-0.115-0.101-0.203-0.228-0.262-0.373
			c-0.061-0.156-0.1-0.317-0.114-0.485C22.185,18.645,22.179,18.492,22.179,18.358z M30.24,19.993
			c-0.341-0.614-0.959-0.997-1.734-1.006h-0.048c-0.535,0-0.984,0.157-1.364,0.474c-0.021,0.017-0.043,0.034-0.052,0.045
			c-0.043,0.027-0.079,0.061-0.098,0.081c-0.211,0.187-0.322,0.238-0.38,0.263c-0.067,0.031-0.131,0.014-0.131,0.014
			c-0.096-0.023-0.138-0.092-0.171-0.186c-0.049-0.148-0.063-0.279-0.063-0.469v-4.223c0-0.496-0.081-0.918-0.243-1.254
			c-0.163-0.336-0.385-0.605-0.661-0.801c-0.276-0.196-0.602-0.33-0.967-0.399c-0.673-0.131-1.47-0.158-2.184,0.017
			c-0.332,0.084-0.633,0.208-0.898,0.367c-0.269,0.166-0.489,0.378-0.653,0.632c-0.167,0.256-0.253,0.551-0.253,0.876
			c0,0.222,0.034,0.396,0.103,0.53c0.067,0.134,0.153,0.242,0.259,0.321c0.104,0.078,0.225,0.129,0.361,0.15
			c0.21,0.033,0.355,0.034,0.627,0.018c0.13-0.006,0.257-0.037,0.37-0.09c0.123-0.055,0.232-0.145,0.32-0.265
			c0.092-0.127,0.142-0.293,0.142-0.493c0-0.037-0.008-0.105-0.018-0.203l-0.008-0.071c-0.008-0.069-0.017-0.142-0.024-0.216
			l-0.031-0.287c-0.01-0.077-0.014-0.129-0.014-0.158c0-0.267,0.064-0.438,0.197-0.526c0.15-0.102,0.324-0.152,0.535-0.152
			c0.315,0,0.52,0.096,0.627,0.291c0.123,0.224,0.184,0.482,0.184,0.76v1.25l-1.428,1.03c-0.002,0.002-0.004,0.004-0.008,0.007
			l-3.633,2.625c-0.005,0.002-0.013,0.006-0.017,0.01l-0.984,0.711c-0.038,0.025-0.074,0.049-0.113,0.074l-0.059,0.029l-0.085,0.039
			c-0.067,0.026-0.123,0.052-0.178,0.07c-0.178,0.057-0.367,0.088-0.583,0.092l-0.081,0.002c-0.093-0.002-0.18-0.005-0.261-0.015
			c-0.351-0.052-0.673-0.228-0.932-0.521c-0.027-0.033-0.056-0.068-0.079-0.101c-0.091-0.129-0.162-0.264-0.22-0.412
			c-0.083-0.207-0.15-0.44-0.19-0.69l4.224-3.046c0.112-0.088,0.15-0.153,0.148-0.27c-0.002-0.089-0.069-0.315-0.205-0.616
			c-0.198-0.432-0.446-0.791-0.75-1.066c-0.303-0.275-0.649-0.481-1.025-0.612c-0.902-0.311-1.833-0.242-2.614,0.155
			c-0.455,0.23-0.858,0.533-1.191,0.905c-0.334,0.365-0.6,0.8-0.792,1.282c-0.192,0.482-0.29,0.982-0.29,1.491
			c0,0.632,0.102,1.203,0.305,1.699c0.1,0.25,0.229,0.492,0.381,0.717l-0.997,0.719c-0.081,0.055-0.124,0.079-0.171,0.106
			l-0.088,0.051c-0.144,0.08-0.222,0.124-0.361,0.124c-0.145,0-0.259-0.026-0.339-0.078c-0.085-0.051-0.146-0.121-0.19-0.215
			c-0.051-0.105-0.083-0.22-0.101-0.355c-0.021-0.136-0.03-0.289-0.03-0.455V13.22h1.646c0.086,0,0.159-0.071,0.159-0.158v-0.238
			c0-0.089-0.073-0.16-0.159-0.16h-1.646v-1.435c0-0.058-0.035-0.113-0.088-0.14c-0.052-0.029-0.117-0.024-0.166,0.012L7.848,13.2
			c-0.426,0.292-0.83,0.438-1.217,0.438H6.63c-0.452-0.005-0.874-0.185-1.185-0.507c-0.308-0.32-0.477-0.748-0.47-1.205
			c0.001-0.114,0.015-0.225,0.038-0.335c2.116-4.583,6.761-7.767,12.155-7.767c7.389,0,13.378,5.971,13.378,13.337
			C30.545,18.133,30.437,19.079,30.24,19.993z"/>
	</g>
</g>
</svg>
