<?xml version="1.0" encoding="iso-8859-1"?>
<!-- Generator: Adobe Illustrator 19.0.0, SVG Export Plug-In . SVG Version: 6.00 Build 0)  -->
<svg version="1.1" id="&#x56FE;&#x5C42;_1" xmlns="http://www.w3.org/2000/svg" xmlns:xlink="http://www.w3.org/1999/xlink" x="0px"
	 y="0px" viewBox="0 0 104 32" style="enable-background:new 0 0 104 32;" xml:space="preserve">
<g id="XMLID_54_">
	<g id="XMLID_99_">
		<path id="XMLID_52_" style="fill:#FFFFFF;" d="M49.671,14.095c-1.43-2.986-2.635-5.668-3.618-8.035h6.092V5.328h-6.358v-4.02
			h-2.374c-0.369,0-0.508,0.152-0.508,0.501v3.519H36.41v0.732h6.226c-0.983,2.368-2.188,5.05-3.614,8.035
			c-0.803,1.565-1.717,2.613-2.746,3.144c1.83,0,3.015-0.107,3.55-0.326c0.67-0.227,1.205-0.741,1.608-1.545
			c0.489-0.888,1.18-2.324,2.073-4.285c0.403-0.847,0.692-1.475,0.87-1.877c0.849,2.054,1.809,4.108,2.88,6.162
			c0.401,0.803,0.94,1.318,1.609,1.545c0.533,0.219,1.719,0.326,3.547,0.326C51.388,16.707,50.474,15.66,49.671,14.095z"/>
		<g id="XMLID_120_">
			<path id="XMLID_127_" style="fill:#FFFFFF;" d="M63.933,13.227h1.874V9.544c0.087-1.16-0.582-1.698-2.008-1.611h-3.148
				c-0.803-0.041-1.273,0.273-1.408,0.942V7.933h-2.074v5.426h1.874c-0.759,1.027-1.563,1.698-2.411,2.009
				c1.919,0.268,3.17,0.065,3.752-0.604c0.18-0.178,0.424-0.446,0.736-0.803c0.224-0.268,0.379-0.445,0.468-0.536
				c0.446,0.536,0.937,1.055,1.472,1.542c0.226,0.443,1.362,0.579,3.416,0.401C65.584,14.88,64.736,14.163,63.933,13.227z
				 M63.73,9.608v3.349c-0.401-0.4-0.803-0.891-1.205-1.472c0-0.043,0-0.132,0-0.269V9.076h-2.077v1.943
				c0,0.4-0.221,0.894-0.67,1.473c-0.177,0.265-0.223,0.316-0.134,0.129c-0.179,0.272-0.313,0.448-0.401,0.542V9.341
				c0.178-0.624,0.559-0.914,1.14-0.868h2.34C63.485,8.384,63.818,8.764,63.73,9.608z"/>
			<path id="XMLID_124_" style="fill:#FFFFFF;" d="M69.084,14.765V4.252c0.046-1.563-0.955-2.322-3.009-2.273h-7.971
				c-1.025,0-1.606,0.374-1.738,1.138V1.979H54.29c-0.298,0-0.468,0.265-0.468,0.542v14.454h2.544v-1.004
				c0.132,0.672,0.667,1.004,1.607,1.004h8.638C68.35,17.066,69.177,16.329,69.084,14.765z M66.477,15.369
				c-0.181,0.67-0.649,0.984-1.408,0.94h-7.629c-0.54,0.044-0.895-0.271-1.073-0.94V3.585c0.222-0.626,0.713-0.937,1.475-0.937
				h7.227c1.029,0,1.542,0.489,1.542,1.471v10.514C66.656,14.947,66.611,15.189,66.477,15.369z"/>
			<path id="XMLID_121_" style="fill:#FFFFFF;" d="M63.532,3.585h-2.816c-0.626,0-1.002,0.29-1.136,0.868V3.585h-2.076v3.48h2.076
				v-0.87c0.044,0.621,0.422,0.917,1.136,0.87h3.014c1.161,0.046,1.717-0.446,1.676-1.477V5.125
				C65.406,4.1,64.778,3.585,63.532,3.585z M62.461,6.463h-1.879c-0.623,0.044-0.958-0.223-1.002-0.801V4.921
				c0.134-0.535,0.444-0.782,0.938-0.736h1.806c0.714-0.046,1.05,0.268,1.005,0.94v0.267C63.375,6.195,63.084,6.551,62.461,6.463z"
				/>
		</g>
		<g id="XMLID_108_">
			<path id="XMLID_45_" style="fill:#FFFFFF;" d="M77.595,3.184c-0.627-0.494-1.144-1.165-1.541-2.01h-2.68
				c0.09,0.221,0.289,0.649,0.603,1.27C74.107,3.117,75.316,3.359,77.595,3.184z"/>
			<path id="XMLID_44_" style="fill:#FFFFFF;" d="M83.218,2.443c0.309-0.621,0.51-1.049,0.604-1.27H81.14
				c-0.355,0.845-0.872,1.516-1.542,2.01C81.879,3.359,83.084,3.117,83.218,2.443z"/>
			<path id="XMLID_114_" style="fill:#FFFFFF;" d="M85.092,12.826c0-1.383-0.892-2.077-2.678-2.077h-5.562
				c-1.07-0.09-1.624,0.309-1.671,1.205v-1.138h-2.437c-0.369,0-0.508,0.208-0.508,0.554v5.606h2.944v-0.937
				c0.046,0.714,0.583,1.028,1.607,0.937h5.76c1.786,0.09,2.635-0.492,2.544-1.738V12.826z M82.08,15.369
				c0.044,0.67-0.312,0.984-1.073,0.94H76.59c-0.762,0.044-1.231-0.315-1.408-1.071v-1.143h6.899V15.369z M82.08,13.562h-6.899
				v-0.736c0.178-1.025,0.672-1.498,1.475-1.408h4.083c0.891-0.042,1.341,0.404,1.341,1.338V13.562z"/>
			<path id="XMLID_40_" style="fill:#FFFFFF;" d="M74.847,7.868c-0.535-0.668-0.983-1.628-1.34-2.877h-1.806
				c0.134,0.623,0.333,1.249,0.6,1.874c0.046,0.178,0.088,0.289,0.134,0.335C72.615,7.735,73.418,7.961,74.847,7.868z"/>
			<path id="XMLID_39_" style="fill:#FFFFFF;" d="M84.754,7.2c0.047-0.046,0.093-0.157,0.139-0.335
				c0.268-0.669,0.466-1.289,0.603-1.874h-1.812C83.328,6.24,82.883,7.2,82.345,7.868C83.772,7.961,84.579,7.735,84.754,7.2z"/>
			<path id="XMLID_109_" style="fill:#FFFFFF;" d="M82.08,8.677V4.252h3.949v-0.6H71.163v0.6h3.885v4.424h-4.353v0.595h15.804V8.677
				H82.08z M79.467,8.677h-1.74V4.252h1.74V8.677z"/>
		</g>
		<path id="XMLID_36_" style="fill:#FFFFFF;" d="M88.641,3.717c0.134,1.295,1.519,1.872,4.154,1.742
			c-0.941-0.357-1.588-1.696-1.948-4.02h-2.368c-0.229,0-0.342,0.134-0.29,0.362c0.178,0.781,0.307,1.309,0.388,1.58
			C88.618,3.564,88.641,3.673,88.641,3.717z"/>
		<path id="XMLID_102_" style="fill:#FFFFFF;" d="M102.635,13.828V2.711h1.006v-0.67h-11.65v0.67h1.269v11.652l-1.874,0.069v0.735
			l8.705-0.533v2.606h2.543v-2.742l1.141-0.065v-0.671L102.635,13.828z M100.092,13.962l-4.219,0.27v-3.618h4.219V13.962z
			 M100.092,10.01h-4.219v-3.28h4.219V10.01z M100.092,6.126h-4.219V2.711h4.219V6.126z"/>
		<path id="XMLID_31_" style="fill:#FFFFFF;" d="M92.458,10.613c-2.677-0.131-4.018,0.692-4.018,2.478
			c-0.131,0.718-0.291,1.699-0.468,2.947c-0.09,0.536-0.157,0.914-0.202,1.138h2.746c0.227-1.295,0.424-2.589,0.604-3.884
			C91.251,11.912,91.698,11.019,92.458,10.613z"/>
		<path id="XMLID_30_" style="fill:#FFFFFF;" d="M90.382,5.792h-2.207c-0.327,0-0.415,0.189-0.337,0.54
			c0.175,0.845,0.311,1.427,0.401,1.738c0.046,1.253,1.408,1.81,4.085,1.676C91.431,9.434,90.784,8.118,90.382,5.792z"/>
	</g>
	<g id="XMLID_77_">
		<path id="XMLID_97_" style="fill:#FFFFFF;" d="M44.267,21.17v0.577h-3.242v8.379h-1.506v-8.379h-3.243V21.17H44.267z"/>
		<path id="XMLID_94_" style="fill:#FFFFFF;" d="M46.469,30.27c-0.47,0-0.907-0.083-1.316-0.26
			c-0.408-0.176-0.768-0.416-1.073-0.721c-0.306-0.299-0.549-0.652-0.725-1.056c-0.177-0.407-0.267-0.839-0.267-1.305
			c0-0.554,0.079-1.066,0.244-1.535c0.165-0.473,0.393-0.88,0.685-1.224c0.296-0.341,0.656-0.609,1.074-0.804
			c0.417-0.192,0.879-0.288,1.388-0.288c0.455,0,0.871,0.079,1.249,0.237c0.376,0.157,0.701,0.371,0.972,0.643
			c0.271,0.267,0.48,0.574,0.628,0.923c0.15,0.357,0.226,0.728,0.226,1.11h-5.15c0,0.461,0.061,0.891,0.181,1.289
			c0.12,0.396,0.289,0.739,0.502,1.024c0.212,0.289,0.469,0.516,0.773,0.674c0.298,0.165,0.623,0.249,0.981,0.249
			c0.299,0,0.588-0.047,0.861-0.147c0.276-0.097,0.522-0.224,0.746-0.378c0.224-0.158,0.414-0.337,0.569-0.54
			c0.156-0.206,0.265-0.411,0.33-0.626l0.396,0.171c-0.104,0.353-0.262,0.69-0.484,0.999c-0.219,0.315-0.475,0.581-0.769,0.812
			c-0.294,0.231-0.615,0.414-0.968,0.549C47.174,30.204,46.824,30.27,46.469,30.27z M47.837,25.44c0-0.262-0.048-0.508-0.137-0.734
			c-0.091-0.219-0.217-0.419-0.38-0.584c-0.158-0.163-0.348-0.293-0.565-0.391c-0.217-0.093-0.45-0.143-0.696-0.143
			c-0.204,0-0.407,0.05-0.597,0.143c-0.19,0.097-0.357,0.226-0.506,0.387c-0.144,0.162-0.271,0.353-0.366,0.578
			c-0.097,0.231-0.158,0.472-0.177,0.737L47.837,25.44z"/>
		<path id="XMLID_91_" style="fill:#FFFFFF;" d="M56.203,30.032h-1.374v-0.945c-0.162,0.121-0.323,0.251-0.479,0.377
			c-0.158,0.126-0.326,0.244-0.509,0.352c-0.178,0.111-0.381,0.195-0.603,0.261c-0.222,0.07-0.475,0.099-0.769,0.099
			c-0.272,0-0.511-0.041-0.733-0.131c-0.217-0.088-0.407-0.21-0.556-0.359c-0.158-0.156-0.276-0.337-0.357-0.547
			c-0.082-0.211-0.123-0.441-0.123-0.685c0-0.296,0.059-0.563,0.177-0.798c0.118-0.238,0.281-0.455,0.484-0.642
			c0.204-0.185,0.438-0.353,0.715-0.502c0.271-0.144,0.561-0.275,0.864-0.391c0.303-0.115,0.614-0.217,0.94-0.307
			c0.326-0.093,0.642-0.174,0.949-0.251v-0.43c0-0.312-0.032-0.574-0.093-0.791c-0.066-0.219-0.151-0.394-0.269-0.529
			c-0.113-0.128-0.253-0.228-0.417-0.287c-0.169-0.054-0.357-0.086-0.56-0.086c-0.231,0-0.42,0.034-0.565,0.093
			c-0.144,0.059-0.26,0.141-0.344,0.237c-0.081,0.099-0.137,0.211-0.17,0.337c-0.029,0.13-0.043,0.248-0.043,0.382
			c0,0.12-0.008,0.239-0.032,0.349c-0.021,0.113-0.054,0.208-0.104,0.289c-0.052,0.084-0.122,0.154-0.21,0.208
			c-0.089,0.047-0.201,0.075-0.337,0.075c-0.106,0-0.203-0.022-0.294-0.061c-0.086-0.038-0.165-0.097-0.229-0.17
			c-0.065-0.07-0.113-0.163-0.147-0.259c-0.036-0.098-0.049-0.206-0.049-0.322c0-0.228,0.073-0.436,0.224-0.64
			c0.151-0.192,0.35-0.364,0.603-0.506c0.252-0.143,0.547-0.262,0.886-0.342c0.339-0.083,0.691-0.124,1.068-0.124
			c0.454,0,0.836,0.045,1.15,0.131c0.312,0.086,0.567,0.212,0.757,0.369c0.194,0.16,0.334,0.352,0.418,0.579
			c0.087,0.228,0.129,0.479,0.129,0.753V30.032z M54.828,26.006c-0.199,0.066-0.403,0.135-0.615,0.217
			c-0.21,0.084-0.421,0.172-0.624,0.276c-0.203,0.1-0.398,0.21-0.579,0.33c-0.185,0.117-0.347,0.242-0.488,0.371
			c-0.136,0.136-0.248,0.276-0.33,0.428c-0.081,0.15-0.122,0.306-0.122,0.469c0,0.167,0.031,0.326,0.095,0.479
			c0.063,0.151,0.144,0.283,0.246,0.396c0.102,0.116,0.22,0.204,0.358,0.271c0.131,0.066,0.273,0.1,0.418,0.1
			c0.158,0,0.303-0.016,0.443-0.063c0.14-0.041,0.276-0.093,0.405-0.163c0.129-0.068,0.26-0.149,0.391-0.24
			c0.131-0.095,0.265-0.19,0.403-0.293V26.006z"/>
		<path id="XMLID_89_" style="fill:#FFFFFF;" d="M64.58,21.076v0.577h-4.719v3.199h3.156v0.583h-3.156v4.016h4.719v0.581h-6.222
			v-8.956H64.58z"/>
		<path id="XMLID_87_" style="fill:#FFFFFF;" d="M65.882,30.032h-0.751l2.894-3.529l-2.446-3.369h1.616l1.689,2.313l1.899-2.313
			h0.746l-2.291,2.796l2.964,4.102h-1.62l-2.198-3.05L65.882,30.032z"/>
		<path id="XMLID_85_" style="fill:#FFFFFF;" d="M74.472,28.824c0.102,0,0.199,0.017,0.287,0.052
			c0.087,0.041,0.161,0.086,0.231,0.152c0.065,0.063,0.118,0.137,0.156,0.228c0.039,0.083,0.059,0.175,0.059,0.273
			c0,0.097-0.02,0.188-0.059,0.276c-0.038,0.09-0.091,0.165-0.156,0.233c-0.07,0.063-0.144,0.111-0.231,0.147
			c-0.088,0.038-0.185,0.056-0.287,0.056c-0.101,0-0.199-0.018-0.289-0.056c-0.09-0.036-0.168-0.084-0.235-0.147
			c-0.065-0.068-0.118-0.143-0.156-0.233c-0.043-0.088-0.056-0.178-0.056-0.276c0-0.098,0.013-0.19,0.056-0.273
			c0.038-0.091,0.091-0.165,0.156-0.228c0.067-0.066,0.145-0.111,0.235-0.152C74.273,28.841,74.371,28.824,74.472,28.824z"/>
		<path id="XMLID_83_" style="fill:#FFFFFF;" d="M80.678,30.177c-0.452,0-0.873-0.088-1.275-0.262
			c-0.394-0.181-0.735-0.423-1.029-0.733c-0.296-0.307-0.527-0.667-0.698-1.085c-0.17-0.418-0.254-0.861-0.254-1.333
			c0-0.523,0.092-1.009,0.281-1.473c0.188-0.457,0.443-0.859,0.769-1.197c0.325-0.344,0.705-0.615,1.139-0.814
			c0.432-0.195,0.895-0.295,1.393-0.295c0.386,0,0.741,0.041,1.066,0.124c0.326,0.079,0.611,0.201,0.844,0.349
			c0.237,0.144,0.421,0.319,0.554,0.524c0.134,0.199,0.2,0.416,0.2,0.65c0,0.103-0.028,0.201-0.082,0.293
			c-0.054,0.088-0.122,0.171-0.208,0.244c-0.089,0.064-0.185,0.118-0.291,0.164c-0.112,0.036-0.222,0.054-0.333,0.054
			c-0.126,0-0.237-0.022-0.334-0.064c-0.1-0.044-0.182-0.099-0.254-0.173c-0.072-0.068-0.126-0.15-0.163-0.242
			c-0.036-0.09-0.054-0.179-0.054-0.275c0-0.159-0.015-0.306-0.05-0.448c-0.036-0.14-0.095-0.261-0.181-0.361
			c-0.086-0.097-0.204-0.177-0.353-0.238c-0.15-0.059-0.341-0.088-0.574-0.088c-0.31,0-0.594,0.07-0.842,0.195
			c-0.248,0.124-0.461,0.293-0.628,0.508c-0.172,0.212-0.308,0.465-0.394,0.755c-0.09,0.292-0.133,0.599-0.133,0.925
			c0,0.441,0.058,0.859,0.17,1.252c0.118,0.393,0.281,0.739,0.489,1.033c0.212,0.298,0.466,0.531,0.762,0.703
			c0.294,0.176,0.626,0.265,0.988,0.265c0.321,0,0.601-0.052,0.836-0.156c0.235-0.097,0.441-0.231,0.615-0.407
			c0.172-0.172,0.321-0.371,0.448-0.599c0.122-0.222,0.233-0.464,0.335-0.717l0.411,0.167c-0.117,0.434-0.273,0.821-0.47,1.163
			c-0.2,0.346-0.43,0.633-0.697,0.868c-0.271,0.24-0.574,0.416-0.909,0.539C81.438,30.116,81.071,30.177,80.678,30.177z"/>
		<path id="XMLID_80_" style="fill:#FFFFFF;" d="M88.493,30.177c-0.527,0-1.015-0.091-1.46-0.273
			c-0.45-0.188-0.837-0.437-1.16-0.751c-0.322-0.317-0.575-0.692-0.758-1.12c-0.183-0.425-0.273-0.882-0.273-1.366
			c0-0.513,0.09-0.991,0.273-1.435c0.184-0.45,0.437-0.837,0.758-1.169c0.323-0.334,0.71-0.594,1.16-0.792
			c0.445-0.192,0.933-0.287,1.46-0.287c0.527,0,1.013,0.088,1.458,0.262c0.444,0.176,0.823,0.418,1.151,0.723
			c0.326,0.308,0.581,0.671,0.762,1.081c0.183,0.414,0.276,0.855,0.276,1.326c0,0.526-0.093,1.015-0.276,1.478
			c-0.181,0.461-0.436,0.866-0.762,1.205c-0.328,0.346-0.707,0.623-1.151,0.82C89.507,30.078,89.02,30.177,88.493,30.177z
			 M88.749,29.67c0.271,0,0.521-0.07,0.744-0.208c0.224-0.136,0.42-0.326,0.586-0.554c0.163-0.239,0.29-0.513,0.384-0.825
			c0.09-0.316,0.134-0.642,0.134-0.99c0-0.502-0.043-0.97-0.131-1.407c-0.083-0.434-0.224-0.814-0.416-1.139
			c-0.192-0.329-0.445-0.586-0.752-0.771c-0.308-0.185-0.688-0.281-1.135-0.281c-0.233,0-0.457,0.075-0.672,0.203
			c-0.212,0.13-0.404,0.315-0.567,0.545c-0.167,0.235-0.298,0.504-0.394,0.812c-0.1,0.307-0.151,0.637-0.151,0.98
			c0,0.503,0.055,0.975,0.161,1.414c0.113,0.444,0.26,0.829,0.466,1.158c0.2,0.327,0.448,0.586,0.745,0.776
			C88.044,29.573,88.378,29.67,88.749,29.67z"/>
		<path id="XMLID_78_" style="fill:#FFFFFF;" d="M93.457,23.125h1.37v1.293c0.175-0.192,0.373-0.375,0.592-0.547
			c0.222-0.172,0.448-0.325,0.682-0.457c0.236-0.133,0.467-0.239,0.704-0.315c0.238-0.079,0.459-0.115,0.667-0.115
			c0.208,0,0.411,0.036,0.624,0.109c0.208,0.072,0.398,0.171,0.577,0.306c0.178,0.13,0.33,0.286,0.464,0.465
			c0.124,0.176,0.208,0.371,0.248,0.581c0.113-0.204,0.271-0.393,0.471-0.569c0.203-0.177,0.424-0.335,0.664-0.467
			c0.244-0.128,0.505-0.235,0.774-0.31c0.27-0.079,0.533-0.115,0.796-0.115c0.262,0,0.506,0.059,0.736,0.174
			c0.231,0.113,0.43,0.269,0.602,0.464c0.172,0.195,0.305,0.425,0.407,0.69c0.097,0.263,0.147,0.54,0.147,0.839v4.881h-1.377v-4.682
			c0-0.194-0.035-0.376-0.097-0.552c-0.07-0.171-0.158-0.321-0.269-0.452c-0.114-0.131-0.244-0.233-0.394-0.313
			c-0.15-0.076-0.303-0.114-0.472-0.114c-0.19,0-0.383,0.027-0.577,0.075c-0.194,0.049-0.38,0.124-0.556,0.212
			c-0.177,0.09-0.335,0.194-0.484,0.316c-0.146,0.122-0.262,0.244-0.346,0.377v5.132h-1.37v-4.682c0-0.194-0.034-0.376-0.097-0.552
			c-0.068-0.171-0.158-0.321-0.276-0.452c-0.118-0.131-0.249-0.233-0.399-0.313c-0.148-0.076-0.309-0.114-0.474-0.114
			c-0.174,0-0.357,0.027-0.545,0.079c-0.185,0.05-0.369,0.127-0.547,0.215c-0.176,0.094-0.341,0.195-0.495,0.315
			c-0.15,0.117-0.281,0.239-0.38,0.372v5.132h-1.37V23.125z"/>
	</g>
	<g id="XMLID_55_">
		<polygon id="XMLID_17_" style="fill:#FFFFFF;" points="8.511,22.791 10.331,22.791 10.331,22.622 8.952,22.622 8.952,21.451 
			9.874,21.451 9.874,21.285 8.952,21.285 8.952,20.349 10.331,20.349 10.331,20.181 8.511,20.181 		"/>
		<polygon id="XMLID_16_" style="fill:#FFFFFF;" points="11.916,21.185 11.742,21.185 11.3,21.724 10.906,21.185 10.529,21.185 
			11.096,21.969 10.422,22.789 10.598,22.789 11.181,22.081 11.697,22.789 12.072,22.789 11.382,21.837 		"/>
		<path id="XMLID_15_" style="fill:#FFFFFF;" d="M13.414,22.313c-0.028,0.053-0.063,0.099-0.104,0.14
			c-0.04,0.039-0.087,0.069-0.141,0.093c-0.057,0.024-0.123,0.034-0.195,0.034c-0.086,0-0.163-0.019-0.231-0.06
			c-0.07-0.04-0.129-0.095-0.178-0.163c-0.049-0.07-0.089-0.15-0.114-0.241c-0.026-0.092-0.04-0.19-0.04-0.292
			c0-0.077,0.012-0.147,0.032-0.214c0.02-0.067,0.051-0.124,0.092-0.175c0.041-0.05,0.089-0.09,0.147-0.119
			c0.058-0.031,0.121-0.045,0.197-0.045c0.055,0,0.099,0.008,0.134,0.021c0.034,0.013,0.062,0.032,0.082,0.054
			c0.021,0.023,0.034,0.052,0.041,0.083c0.009,0.033,0.013,0.069,0.013,0.105c0,0.021,0.002,0.044,0.011,0.066
			c0.012,0.021,0.024,0.04,0.041,0.057c0.015,0.016,0.034,0.029,0.059,0.038c0.022,0.011,0.048,0.016,0.077,0.016
			c0.025,0,0.051-0.005,0.077-0.015c0.025-0.009,0.047-0.022,0.066-0.037c0.023-0.014,0.037-0.034,0.05-0.056
			c0.013-0.022,0.018-0.045,0.018-0.069c0-0.053-0.015-0.105-0.045-0.151c-0.032-0.046-0.075-0.086-0.129-0.12
			c-0.055-0.035-0.121-0.063-0.197-0.081c-0.075-0.016-0.161-0.029-0.251-0.029c-0.114,0-0.224,0.022-0.324,0.069
			c-0.1,0.044-0.19,0.107-0.265,0.187c-0.074,0.079-0.134,0.173-0.178,0.279c-0.045,0.106-0.067,0.222-0.067,0.343
			c0,0.111,0.022,0.214,0.059,0.309c0.04,0.098,0.093,0.18,0.163,0.254c0.07,0.072,0.15,0.127,0.242,0.17
			c0.092,0.039,0.191,0.062,0.296,0.062c0.092,0,0.177-0.015,0.255-0.045c0.08-0.026,0.149-0.067,0.212-0.123
			c0.063-0.054,0.119-0.122,0.163-0.201c0.048-0.082,0.082-0.17,0.11-0.271l-0.097-0.039C13.47,22.205,13.444,22.259,13.414,22.313z
			"/>
		<path id="XMLID_14_" style="fill:#FFFFFF;" d="M15.12,21.295c-0.038-0.043-0.082-0.077-0.128-0.104
			c-0.05-0.025-0.103-0.038-0.16-0.038c-0.107,0-0.217,0.026-0.322,0.08c-0.103,0.052-0.205,0.135-0.302,0.244v-1.117h-0.092
			l-0.228,0.091v2.337h0.32V21.6c0.073-0.069,0.148-0.126,0.23-0.168c0.077-0.043,0.153-0.064,0.221-0.064
			c0.076,0,0.14,0.028,0.185,0.082c0.049,0.057,0.072,0.136,0.072,0.241v1.097h0.32v-1.15c0-0.069-0.011-0.131-0.032-0.189
			C15.185,21.39,15.155,21.338,15.12,21.295z"/>
		<path id="XMLID_70_" style="fill:#FFFFFF;" d="M16.67,21.269c-0.046-0.038-0.104-0.066-0.177-0.087
			c-0.074-0.016-0.162-0.029-0.268-0.029c-0.089,0-0.17,0.012-0.25,0.029c-0.078,0.018-0.146,0.046-0.205,0.079
			c-0.06,0.033-0.107,0.073-0.142,0.119c-0.035,0.046-0.053,0.096-0.053,0.148c0,0.054,0.017,0.098,0.048,0.134
			c0.029,0.036,0.071,0.055,0.122,0.055c0.031,0,0.059-0.006,0.078-0.019c0.02-0.011,0.036-0.029,0.048-0.046
			c0.011-0.021,0.021-0.044,0.025-0.07c0.005-0.027,0.006-0.052,0.006-0.08c0-0.032,0.005-0.06,0.009-0.092
			c0.009-0.028,0.023-0.054,0.043-0.077c0.019-0.021,0.045-0.04,0.08-0.053c0.032-0.015,0.076-0.022,0.131-0.022
			c0.048,0,0.091,0.007,0.129,0.021c0.038,0.013,0.072,0.034,0.099,0.065c0.026,0.031,0.046,0.073,0.06,0.121
			c0.015,0.052,0.022,0.112,0.022,0.186v0.1c-0.07,0.018-0.144,0.035-0.221,0.058c-0.073,0.022-0.148,0.046-0.218,0.072
			c-0.07,0.026-0.138,0.055-0.202,0.089c-0.064,0.036-0.118,0.073-0.167,0.117c-0.047,0.044-0.084,0.094-0.11,0.15
			c-0.028,0.055-0.044,0.117-0.044,0.188c0,0.057,0.011,0.109,0.029,0.157c0.019,0.049,0.047,0.093,0.082,0.127
			c0.036,0.037,0.08,0.065,0.13,0.086c0.052,0.019,0.11,0.031,0.171,0.031c0.067,0,0.127-0.008,0.179-0.023
			c0.054-0.016,0.1-0.036,0.143-0.061c0.041-0.026,0.082-0.053,0.12-0.083c0.035-0.028,0.072-0.056,0.109-0.087v0.218h0.322v-1.211
			c0-0.065-0.009-0.124-0.032-0.176C16.747,21.35,16.715,21.304,16.67,21.269z M16.476,22.455c-0.031,0.023-0.06,0.045-0.092,0.066
			c-0.031,0.022-0.061,0.041-0.093,0.057c-0.031,0.018-0.063,0.03-0.095,0.04c-0.03,0.008-0.065,0.014-0.102,0.014
			c-0.034,0-0.066-0.008-0.097-0.023c-0.031-0.015-0.059-0.037-0.086-0.064c-0.022-0.026-0.041-0.057-0.055-0.09
			c-0.016-0.037-0.022-0.072-0.022-0.114c0-0.057,0.02-0.108,0.062-0.159c0.042-0.049,0.092-0.094,0.156-0.137
			c0.064-0.042,0.134-0.077,0.209-0.108c0.075-0.032,0.148-0.059,0.215-0.08V22.455z"/>
		<path id="XMLID_11_" style="fill:#FFFFFF;" d="M18.455,21.295c-0.037-0.043-0.078-0.077-0.129-0.104
			c-0.049-0.025-0.1-0.038-0.157-0.038c-0.11,0-0.217,0.026-0.322,0.08c-0.104,0.052-0.204,0.135-0.303,0.244v-0.293h-0.319v1.607
			h0.319V21.6c0.038-0.033,0.076-0.066,0.113-0.093c0.039-0.03,0.079-0.055,0.117-0.075c0.04-0.022,0.078-0.036,0.116-0.048
			c0.038-0.011,0.075-0.016,0.107-0.016c0.076,0,0.137,0.028,0.186,0.082c0.047,0.057,0.072,0.136,0.072,0.241v1.1h0.32v-1.153
			c0-0.069-0.011-0.131-0.034-0.189C18.52,21.39,18.491,21.338,18.455,21.295z"/>
		<path id="XMLID_65_" style="fill:#FFFFFF;" d="M20.007,21.223c-0.032-0.014-0.068-0.026-0.108-0.038
			c-0.042-0.009-0.084-0.016-0.13-0.025c-0.046-0.005-0.096-0.007-0.144-0.007c-0.099,0-0.192,0.016-0.278,0.045
			c-0.085,0.031-0.16,0.072-0.223,0.124c-0.065,0.052-0.114,0.113-0.15,0.184c-0.037,0.069-0.055,0.145-0.055,0.224
			c0,0.106,0.031,0.201,0.091,0.281c0.06,0.083,0.146,0.148,0.255,0.195c-0.045,0.016-0.089,0.037-0.128,0.062
			c-0.038,0.028-0.072,0.057-0.103,0.09c-0.028,0.032-0.054,0.065-0.068,0.1c-0.019,0.034-0.027,0.066-0.027,0.102
			c0,0.021,0.004,0.043,0.015,0.06c0.012,0.019,0.025,0.038,0.043,0.056c0.021,0.015,0.043,0.029,0.068,0.043
			c0.025,0.011,0.053,0.023,0.082,0.033c-0.04,0.031-0.082,0.063-0.123,0.098c-0.044,0.037-0.081,0.071-0.116,0.11
			c-0.033,0.036-0.062,0.074-0.085,0.117c-0.022,0.04-0.033,0.082-0.033,0.126c0,0.05,0.016,0.096,0.05,0.135
			c0.033,0.041,0.08,0.076,0.148,0.104c0.066,0.03,0.148,0.052,0.248,0.067c0.099,0.014,0.217,0.023,0.348,0.023
			c0.151,0,0.284-0.014,0.4-0.042c0.118-0.03,0.219-0.073,0.302-0.127c0.082-0.053,0.144-0.116,0.186-0.193
			c0.045-0.076,0.067-0.162,0.067-0.252c0-0.053-0.008-0.101-0.023-0.142c-0.016-0.045-0.044-0.081-0.08-0.11
			c-0.04-0.03-0.089-0.057-0.154-0.073c-0.064-0.019-0.142-0.03-0.235-0.033l-0.597-0.028c-0.065-0.001-0.114-0.012-0.15-0.033
			c-0.035-0.019-0.053-0.045-0.053-0.079c0-0.034,0.012-0.067,0.033-0.099c0.02-0.033,0.045-0.062,0.076-0.087
			c0.032,0.011,0.068,0.019,0.111,0.026c0.042,0.007,0.083,0.012,0.122,0.012c0.11,0,0.211-0.014,0.302-0.039
			c0.093-0.031,0.173-0.069,0.238-0.116c0.066-0.049,0.116-0.107,0.153-0.178c0.038-0.067,0.055-0.146,0.055-0.228
			c0-0.053-0.008-0.107-0.028-0.161c-0.019-0.056-0.043-0.105-0.076-0.148h0.306v-0.132h-0.46
			C20.064,21.253,20.038,21.238,20.007,21.223z M19.355,22.793c0.054,0.005,0.113,0.009,0.182,0.016
			c0.067,0.005,0.141,0.008,0.22,0.014c0.079,0.003,0.158,0.003,0.234,0.003c0.123,0,0.221,0.016,0.293,0.049
			c0.072,0.032,0.107,0.086,0.107,0.158c0,0.034-0.014,0.069-0.045,0.104c-0.032,0.033-0.075,0.065-0.136,0.093
			c-0.06,0.026-0.131,0.048-0.216,0.065c-0.085,0.021-0.183,0.027-0.289,0.027c-0.102,0-0.19-0.005-0.266-0.021
			c-0.074-0.016-0.139-0.036-0.19-0.061c-0.049-0.025-0.089-0.054-0.114-0.087c-0.024-0.031-0.036-0.068-0.036-0.104
			c0-0.044,0.012-0.091,0.036-0.142c0.025-0.05,0.063-0.092,0.11-0.13C19.268,22.779,19.305,22.786,19.355,22.793z M19.963,21.948
			c-0.018,0.048-0.045,0.089-0.078,0.123c-0.031,0.036-0.069,0.065-0.108,0.083c-0.042,0.025-0.087,0.032-0.133,0.032
			c-0.055,0-0.106-0.011-0.15-0.039c-0.046-0.026-0.085-0.063-0.118-0.109c-0.032-0.047-0.057-0.101-0.075-0.162
			c-0.018-0.064-0.026-0.133-0.026-0.207c0-0.059,0.006-0.116,0.017-0.168c0.012-0.055,0.032-0.099,0.056-0.138
			c0.026-0.039,0.06-0.069,0.098-0.092c0.039-0.021,0.085-0.033,0.14-0.033c0.053,0,0.107,0.015,0.155,0.043
			c0.049,0.027,0.093,0.066,0.13,0.116c0.036,0.049,0.065,0.111,0.086,0.177c0.021,0.067,0.034,0.14,0.034,0.219
			C19.992,21.849,19.981,21.898,19.963,21.948z"/>
		<path id="XMLID_62_" style="fill:#FFFFFF;" d="M22.146,22.332c-0.036,0.049-0.082,0.088-0.131,0.127
			c-0.054,0.039-0.112,0.067-0.175,0.09c-0.063,0.022-0.131,0.031-0.199,0.031c-0.084,0-0.161-0.018-0.231-0.056
			c-0.069-0.036-0.129-0.09-0.181-0.156c-0.049-0.068-0.089-0.148-0.117-0.238c-0.028-0.092-0.04-0.193-0.04-0.3h1.201
			c0-0.09-0.017-0.176-0.052-0.257c-0.035-0.082-0.085-0.152-0.147-0.216c-0.064-0.06-0.14-0.111-0.228-0.148
			c-0.087-0.038-0.184-0.055-0.288-0.055c-0.122,0-0.228,0.021-0.328,0.066c-0.095,0.046-0.179,0.109-0.249,0.188
			c-0.069,0.08-0.122,0.174-0.158,0.283c-0.039,0.109-0.06,0.23-0.06,0.358c0,0.106,0.022,0.207,0.065,0.303
			c0.041,0.093,0.097,0.176,0.168,0.246c0.072,0.071,0.157,0.127,0.253,0.167c0.095,0.041,0.196,0.062,0.306,0.062
			c0.082,0,0.165-0.015,0.246-0.047c0.082-0.031,0.156-0.073,0.224-0.127c0.07-0.054,0.13-0.116,0.181-0.192
			c0.05-0.073,0.087-0.148,0.11-0.229l-0.092-0.043C22.207,22.238,22.181,22.286,22.146,22.332z M21.112,21.53
			c0.025-0.052,0.053-0.097,0.088-0.136c0.034-0.039,0.073-0.066,0.116-0.089c0.045-0.022,0.09-0.032,0.138-0.032
			c0.059,0,0.113,0.011,0.163,0.032c0.051,0.023,0.096,0.05,0.133,0.089c0.039,0.039,0.069,0.084,0.089,0.137
			c0.022,0.052,0.034,0.11,0.034,0.171l-0.801-0.002C21.078,21.638,21.09,21.581,21.112,21.53z"/>
		<path id="XMLID_56_" style="fill:#FFFFFF;" d="M26.314,0.078H5.54C2.48,0.078,0,2.551,0,5.601V26.41
			c0,3.051,2.48,5.523,5.54,5.523h20.775c3.061,0,5.541-2.472,5.541-5.523V5.601C31.855,2.551,29.375,0.078,26.314,0.078z
			 M15.938,28.06c-1.723,0-3.364-0.35-4.855-0.983c-0.806-0.325-1.286-0.593-2.3-0.62H4.813v-3.536c0-0.954,0-1.683-0.536-2.891
			c-0.096-0.216-0.131-0.359-0.126-0.45c-0.409-1.227-0.633-2.538-0.633-3.903c0-1.452,0.254-2.844,0.714-4.139
			c0.276,0.796,1.015,1.36,1.915,1.373H6.19c0.44,0,0.895-0.165,1.397-0.509l0.616-0.441v4.782c0,0.194,0.011,0.406,0.028,0.628
			c0.022,0.246,0.106,0.477,0.248,0.688c0.038,0.055,0.08,0.108,0.133,0.16c0.097,0.102,0.218,0.194,0.362,0.276
			c0.316,0.19,0.67,0.291,1.148,0.327c0.619,0.047,1.138-0.156,1.39-0.33c0.026-0.015,0.054-0.032,0.078-0.049
			c0.063-0.04,0.122-0.087,0.169-0.126l0.909-0.657c0.041,0.045,0.083,0.087,0.124,0.126c0.333,0.327,0.728,0.577,1.174,0.745
			c0.099,0.038,0.198,0.067,0.3,0.098V18.63c0.008,0.004,0.015,0.008,0.026,0.011c0,0,0.035,0.009,0.035,0.009
			c0.601,0.165,1.089,0.201,1.658,0.119c0.546-0.067,0.877-0.312,1.089-0.474l1.373-0.992c0.026,0.227,0.091,0.428,0.197,0.601
			c0.138,0.224,0.322,0.404,0.547,0.533c0.211,0.121,0.452,0.212,0.71,0.269c0.252,0.053,0.502,0.082,0.744,0.082
			c0.535,0,0.955-0.081,1.247-0.241c0.218-0.118,0.408-0.318,0.556-0.594c0.089,0.207,0.219,0.38,0.391,0.519
			c0.264,0.211,0.664,0.316,1.189,0.316c0.22,0,0.522,0,0.791-0.126c0.27-0.127,0.515-0.327,0.604-0.422
			c0.283-0.251,0.594-0.363,1.033-0.363c0.417,0.005,0.768,0.161,1.016,0.449c0.208,0.241,0.325,0.574,0.349,0.945
			C26.279,24.355,21.544,28.06,15.938,28.06z M13.953,15.177v-0.942c0.008-0.268,0.026-0.548,0.048-0.842
			c0.024-0.283,0.076-0.553,0.159-0.802c0.08-0.236,0.196-0.427,0.356-0.582c0.147-0.14,0.367-0.212,0.65-0.212
			c0.192,0,0.336,0.045,0.436,0.137c0.11,0.099,0.19,0.222,0.24,0.366c0.052,0.156,0.082,0.312,0.092,0.465
			c0.009,0.167,0.014,0.306,0.014,0.419l-0.002,1.488l-1.965,1.42C13.961,15.785,13.953,15.479,13.953,15.177z M20.591,16.79
			c0-0.294,0.042-0.534,0.124-0.712c0.075-0.164,0.177-0.33,0.317-0.509c0.143-0.183,0.325-0.368,0.459-0.462l0.764-0.553V16.6
			c0,0.291-0.028,0.541-0.081,0.746c-0.053,0.196-0.122,0.355-0.21,0.472c-0.081,0.114-0.174,0.198-0.276,0.249
			c-0.097,0.053-0.198,0.077-0.302,0.077c-0.184,0-0.327-0.042-0.426-0.128c-0.106-0.094-0.187-0.212-0.244-0.347
			c-0.056-0.145-0.092-0.295-0.106-0.45C20.596,17.056,20.591,16.914,20.591,16.79z M28.075,18.308
			c-0.317-0.57-0.891-0.925-1.61-0.934h-0.045c-0.496,0-0.914,0.145-1.266,0.44c-0.019,0.015-0.04,0.032-0.048,0.042
			c-0.039,0.025-0.072,0.057-0.091,0.075c-0.197,0.174-0.299,0.221-0.354,0.245c-0.061,0.028-0.121,0.013-0.121,0.013
			c-0.09-0.021-0.129-0.085-0.159-0.172c-0.045-0.138-0.059-0.259-0.059-0.435v-3.921c0-0.461-0.075-0.852-0.225-1.164
			c-0.152-0.312-0.357-0.562-0.613-0.744c-0.257-0.181-0.56-0.306-0.898-0.371c-0.624-0.122-1.365-0.146-2.027,0.016
			c-0.31,0.079-0.589,0.193-0.834,0.341c-0.249,0.154-0.454,0.351-0.607,0.586c-0.154,0.238-0.234,0.511-0.234,0.813
			c0,0.205,0.031,0.367,0.095,0.492c0.062,0.125,0.142,0.225,0.24,0.298c0.096,0.073,0.21,0.12,0.335,0.14
			c0.195,0.03,0.33,0.032,0.583,0.016c0.12-0.005,0.238-0.035,0.343-0.083c0.114-0.052,0.215-0.134,0.298-0.245
			c0.085-0.118,0.131-0.273,0.131-0.458c0-0.034-0.007-0.097-0.017-0.189l-0.008-0.066c-0.007-0.065-0.015-0.132-0.022-0.201
			l-0.028-0.266c-0.01-0.072-0.013-0.12-0.013-0.147c0-0.249,0.059-0.407,0.182-0.489c0.139-0.095,0.301-0.141,0.496-0.141
			c0.293,0,0.482,0.089,0.582,0.271c0.114,0.208,0.17,0.447,0.17,0.705v1.161L20.93,14.89c-0.003,0.002-0.004,0.003-0.007,0.006
			l-3.374,2.437c-0.005,0.002-0.012,0.006-0.015,0.01l-0.914,0.66c-0.035,0.023-0.069,0.046-0.105,0.068l-0.055,0.027l-0.079,0.036
			c-0.062,0.025-0.114,0.048-0.165,0.065c-0.165,0.053-0.34,0.082-0.541,0.086L15.6,18.286c-0.087-0.002-0.168-0.005-0.243-0.015
			c-0.326-0.048-0.626-0.211-0.866-0.483c-0.025-0.031-0.051-0.063-0.073-0.093c-0.084-0.12-0.15-0.245-0.204-0.383
			c-0.077-0.192-0.139-0.408-0.176-0.64l3.922-2.829c0.103-0.081,0.139-0.141,0.137-0.25c-0.002-0.083-0.064-0.292-0.19-0.571
			c-0.184-0.401-0.415-0.735-0.697-0.991c-0.282-0.255-0.603-0.446-0.951-0.568c-0.837-0.288-1.702-0.225-2.427,0.144
			c-0.422,0.213-0.796,0.495-1.106,0.84c-0.31,0.339-0.557,0.743-0.735,1.19c-0.178,0.448-0.269,0.912-0.269,1.384
			c0,0.586,0.094,1.117,0.283,1.577c0.093,0.232,0.212,0.457,0.353,0.665l-0.925,0.668c-0.075,0.051-0.114,0.073-0.159,0.098
			l-0.082,0.048c-0.133,0.074-0.206,0.115-0.335,0.115c-0.135,0-0.241-0.024-0.315-0.072c-0.079-0.048-0.135-0.113-0.175-0.2
			c-0.048-0.097-0.077-0.204-0.094-0.33c-0.019-0.126-0.027-0.268-0.027-0.422V12.02h1.528c0.08,0,0.148-0.066,0.148-0.147v-0.221
			c0-0.083-0.068-0.149-0.148-0.149h-1.528v-1.332c0-0.053-0.032-0.104-0.082-0.129c-0.049-0.027-0.109-0.022-0.154,0.011L7.285,12
			c-0.395,0.271-0.77,0.407-1.13,0.407H6.155c-0.42-0.005-0.811-0.173-1.1-0.471c-0.286-0.298-0.443-0.695-0.436-1.118
			c0.001-0.107,0.013-0.209,0.035-0.31c1.964-4.255,6.277-7.212,11.284-7.212c6.86,0,12.42,5.544,12.42,12.382
			C28.358,16.581,28.257,17.458,28.075,18.308z"/>
	</g>
</g>
</svg>
