<?xml version="1.0" encoding="iso-8859-1"?>
<!-- Generator: Adobe Illustrator 19.0.0, SVG Export Plug-In . SVG Version: 6.00 Build 0)  -->
<svg version="1.1" id="&#x56FE;&#x5C42;_1" xmlns="http://www.w3.org/2000/svg" xmlns:xlink="http://www.w3.org/1999/xlink" x="0px"
	 y="0px" viewBox="0 0 234 92" style="enable-background:new 0 0 234 92;" xml:space="preserve">
<g id="XMLID_2_">
	<g id="XMLID_440_">
		<path id="XMLID_441_" style="fill:#333333;" d="M37.941,25.862c-0.416-0.352-0.8-0.608-1.152-0.768
			c-0.353-0.16-0.977-0.352-1.872-0.576c-1.376-0.319-2.201-0.6-2.472-0.84c-0.272-0.24-0.569-0.28-0.888-0.12
			c-0.32,0.16-0.497,0.296-0.528,0.408c-0.032,0.112-0.185,0.184-0.456,0.216c-0.272,0.032-1.176,0.432-2.712,1.2
			c-1.952,0.96-3.376,1.52-4.272,1.68c-0.416,0.032-0.953,0.152-1.608,0.36c-0.656,0.208-1,0.36-1.032,0.456
			c-0.032,0.128-0.144,0.192-0.336,0.192s-0.256-0.079-0.192-0.24c0.064-0.16,0.176-0.511,0.336-1.056
			c0.096-0.352,0.208-0.583,0.336-0.696c0.128-0.112,0.384-0.232,0.768-0.36c0.799-0.256,1.408-0.128,1.824,0.384
			c0.128,0.128,0.384,0.224,0.768,0.288c0.288,0.032,0.496,0.008,0.624-0.072c0.128-0.08,0.32-0.328,0.576-0.744
			c0.384-0.576,0.688-1.152,0.912-1.728c0.128-0.415,0.247-0.672,0.36-0.768c0.112-0.096,0.28-0.144,0.504-0.144
			c0.352,0,0.6-0.096,0.744-0.288c0.144-0.192,0.52-0.464,1.128-0.816c0.96-0.544,2.272-1.488,3.936-2.832
			c0.16-0.128,0.304-0.392,0.432-0.792c0.128-0.4,0.192-0.744,0.192-1.032c0-0.223-0.192-0.528-0.576-0.912
			c-0.384-0.384-0.688-0.576-0.912-0.576c-0.224,0-0.368-0.08-0.432-0.24c-0.096-0.288-1.344,0.065-3.744,1.056l-1.536,0.672
			l-0.336-0.528c-0.257-0.384-0.593-0.776-1.008-1.176c-0.416-0.4-0.784-0.648-1.104-0.744c-0.224-0.096-0.353-0.168-0.384-0.216
			c-0.032-0.048,0.016-0.12,0.144-0.216c0.192-0.16,0.328-0.352,0.408-0.576c0.08-0.224,0.304-0.408,0.672-0.552
			c0.367-0.144,0.68-0.264,0.936-0.36c1.024-0.448,1.984-0.768,2.88-0.96c0.799-0.16,1.312-0.367,1.536-0.624
			c0.16-0.16,0.224-0.288,0.192-0.384c-0.032-0.096-0.192-0.271-0.48-0.528c-0.257-0.288-0.544-0.488-0.864-0.6
			c-0.32-0.112-0.944-0.264-1.872-0.456c-0.384-0.064-0.84,0.024-1.368,0.264c-0.528,0.24-1.176,0.48-1.944,0.72
			s-1.352,0.44-1.752,0.6c-0.4,0.161-0.808,0.288-1.224,0.384l-0.672,0.096l0.672-0.432c0.416-0.256,0.84-0.424,1.272-0.504
			c0.432-0.079,0.68-0.168,0.744-0.264c0.064-0.096,0.295-0.144,0.696-0.144c0.4,0,0.703-0.088,0.912-0.264
			c0.208-0.175,0.592-0.352,1.152-0.528c0.56-0.175,1.032-0.439,1.416-0.792c0.384-0.319,0.72-0.607,1.008-0.864
			c0.224-0.192,0.448-0.583,0.672-1.176c0.224-0.592,0.336-1.063,0.336-1.416c0-0.352-0.272-0.816-0.816-1.392
			c-0.544-0.576-1.024-0.912-1.44-1.008c-0.544-0.16-1-0.216-1.368-0.168c-0.368,0.048-0.857,0.232-1.464,0.552
			c-0.737,0.416-1.296,0.768-1.68,1.056l-0.768,0.576c-0.192,0.16-0.496,0.401-0.912,0.72c-0.48,0.353-0.737,0.512-0.768,0.48
			c-0.384-0.608-0.68-1.016-0.888-1.224c-0.208-0.208-0.488-0.376-0.84-0.504c-0.48-0.192-0.792-0.256-0.936-0.192
			c-0.144,0.065-0.296,0.32-0.456,0.768c-0.384,0.96-0.641,1.872-0.768,2.736c-0.128,0.864-0.08,1.392,0.144,1.584
			c0.128,0.128,0.208,0.288,0.24,0.48c0.064,0.257,0.192,0.56,0.384,0.912c0.192,0.352,0.352,0.576,0.48,0.672
			c0.064,0.032,0.096,0.08,0.096,0.144c0,0.224-0.704,0.672-2.112,1.344c-1.152,0.576-1.84,1.032-2.064,1.368
			c-0.224,0.336-0.065,0.744,0.48,1.224c0.256,0.257,0.472,0.401,0.648,0.432c0.175,0.032,0.552,0.017,1.128-0.048
			c0.8-0.128,1.584-0.336,2.352-0.624c0.799-0.319,1.376-0.544,1.728-0.672c0.48-0.192,0.76-0.232,0.84-0.12
			c0.08,0.112-0.008,0.44-0.264,0.984c-0.352,0.641-0.648,1.24-0.888,1.8c-0.24,0.56-0.464,0.984-0.672,1.272
			c-0.208,0.288-0.24,0.432-0.096,0.432s0.216-0.064,0.216-0.192c0-0.128,0.048-0.192,0.144-0.192
			c0.064,0.032,0.096,0.152,0.096,0.36c0,0.208-0.032,0.473-0.096,0.792c-0.064,0.32-0.144,0.576-0.24,0.768
			c-0.16,0.32-0.904,0.728-2.232,1.224c-1.328,0.497-2.36,0.744-3.096,0.744c-0.512,0-0.832-0.128-0.96-0.384
			c-0.257-0.512,0.192-1.152,1.344-1.92l0.144-0.144c0-0.064-0.24-0.064-0.72,0c-0.608,0.096-1.128,0.272-1.56,0.528
			c-0.432,0.256-0.68,0.56-0.744,0.912c-0.096,0.48,0.072,1.064,0.504,1.752c0.432,0.688,0.904,1.096,1.416,1.224
			c0.256,0.065,0.823-0.008,1.704-0.216c0.88-0.208,1.432-0.424,1.656-0.648c0.16-0.128,0.264-0.184,0.312-0.168
			c0.048,0.017,0.088,0.104,0.12,0.264c0.096,0.256,0.192,0.504,0.288,0.744c0.096,0.24,0.175,0.6,0.24,1.08
			c0.064,0.416-0.024,0.737-0.264,0.96c-0.24,0.224-0.936,0.624-2.088,1.2c-0.96,0.48-1.584,0.832-1.872,1.056
			c-0.288,0.224-1.456,0.864-3.504,1.92c-4.416,2.177-7.024,3.48-7.824,3.912c-0.8,0.432-1.28,0.776-1.44,1.032
			c-0.161,0.288-0.168,0.521-0.024,0.696c0.144,0.176,0.151,0.344,0.024,0.504c-0.192,0.256-0.216,0.688-0.072,1.296
			c0.144,0.608,0.376,1.04,0.696,1.296c0.256,0.224,0.592,0.32,1.008,0.288c0.415-0.031,0.736-0.176,0.96-0.432
			c0.288-0.288,0.504-0.432,0.648-0.432c0.144,0,0.784-0.256,1.92-0.768c1.135-0.511,1.792-0.784,1.968-0.816
			c0.176-0.031,0.344-0.112,0.504-0.24c0.48-0.384,2.032-1.168,4.656-2.352c0.607-0.288,1.168-0.56,1.68-0.816
			c0.832-0.416,1.904-0.872,3.216-1.368c1.312-0.496,2.128-0.744,2.448-0.744c0.48-0.031,0.799-0.112,0.96-0.24
			c0.032-0.031,0.064-0.048,0.096-0.048c0.064,0.032,0.064,0.161,0,0.384c-0.096,0.288-0.168,0.664-0.216,1.128
			c-0.048,0.464-0.248,0.968-0.6,1.512c-0.929,1.504-1.472,2.336-1.632,2.496c-0.065,0.065-0.264,0.36-0.6,0.888
			s-0.776,1.128-1.32,1.8c-0.448,0.512-0.696,0.857-0.744,1.032c-0.048,0.175-0.04,0.487,0.024,0.936
			c0.128,0.607,0.288,1.024,0.48,1.248c0.192,0.224,0.288,0.432,0.288,0.624c0,0.256,0.184,0.936,0.552,2.04
			c0.367,1.104,0.68,1.912,0.936,2.424c0.224,0.448,0.424,0.744,0.6,0.888c0.176,0.144,0.392,0.184,0.648,0.12
			c0.096,0,0.32-0.016,0.672-0.048c0.352,0,0.664-0.137,0.936-0.408c0.272-0.272,0.408-0.568,0.408-0.888
			c0-0.257,0.055-0.408,0.168-0.456c0.112-0.048,0.456-0.104,1.032-0.168c0.672-0.064,1.144-0.04,1.416,0.072
			c0.271,0.112,0.84,0.472,1.704,1.08c1.056,0.768,1.744,0.991,2.064,0.672c0.096-0.096,0.208-0.144,0.336-0.144l0.288-0.096
			c0.128,0,0.336-0.272,0.624-0.816c0.352-0.608,0.64-1.824,0.864-3.648c0.031-0.352,0.096-0.688,0.192-1.008
			c0.16-0.672,0.16-2.544,0-5.616c-0.064-1.504-0.432-2.768-1.104-3.792c-0.672-1.024-1.52-1.632-2.544-1.824
			c-0.288-0.064-0.608-0.16-0.96-0.288c-0.257-0.096-0.392-0.16-0.408-0.192c-0.016-0.031,0.056-0.096,0.216-0.192
			c0.224-0.128,0.391-0.344,0.504-0.648c0.112-0.304,0.352-0.496,0.72-0.576c0.367-0.079,0.76-0.199,1.176-0.36
			c0.896-0.352,2.336-0.607,4.32-0.768c1.248-0.128,1.968-0.208,2.16-0.24c0.832-0.064,1.312-0.096,1.44-0.096
			c0.128,0.032,0.624,0.08,1.488,0.144c0.576,0.065,0.944,0.08,1.104,0.048c0.16-0.031,0.304-0.144,0.432-0.336
			c0.256-0.384,0.344-0.712,0.264-0.984C38.7,26.622,38.421,26.278,37.941,25.862z M27.069,17.845
			c0.24-0.192,1.144-0.607,2.712-1.248c0.16-0.064,0.288-0.128,0.384-0.192c0.288-0.096,0.472-0.144,0.552-0.144
			c0.08,0,0.12,0.08,0.12,0.24c0,0.353-0.8,1.088-2.4,2.208l-1.152,0.816l-0.192-0.576c-0.032,0-0.048-0.031-0.048-0.096
			C26.82,18.373,26.829,18.037,27.069,17.845z M22.725,17.845c0.192-1.567,0.448-2.352,0.768-2.352c0.128,0,0.256,0.144,0.384,0.432
			c0.096,0.224,0.12,0.648,0.072,1.272c-0.048,0.624-0.136,1-0.264,1.128c-0.128,0.096-0.353,0.192-0.672,0.288
			c-0.224,0.065-0.344,0.065-0.36,0C22.636,18.55,22.66,18.294,22.725,17.845z M21.957,22.117c0.096-0.288,0.176-0.703,0.24-1.248
			c0.064-0.544,0.224-0.912,0.48-1.104c0.256-0.16,0.415-0.24,0.48-0.24c0.128,0.032,0.064,0.416-0.192,1.152
			c-0.224,0.8-0.36,1.296-0.408,1.488c-0.048,0.192-0.185,0.305-0.408,0.336c-0.128,0.032-0.208,0.024-0.24-0.024
			C21.876,22.43,21.892,22.31,21.957,22.117z M20.421,9.157c0.096-0.288,0.176-0.576,0.24-0.864
			c0.064-0.288,0.151-0.432,0.264-0.432c0.112,0,0.247-0.288,0.408-0.864c0.288-1.184,1.312-2.224,3.072-3.12
			c0.64-0.32,1.039-0.504,1.2-0.552c0.16-0.048,0.288,0.008,0.384,0.168c0.192,0.32-0.12,0.984-0.936,1.992s-1.896,2.088-3.24,3.24
			c-0.48,0.384-0.848,0.641-1.104,0.768C20.421,9.654,20.325,9.542,20.421,9.157z M19.317,28.261l-0.432,0.24
			c-0.224,0.096-0.512,0.224-0.864,0.384c-0.353,0.16-0.848,0.384-1.488,0.672c-0.576,0.256-1.056,0.432-1.44,0.528
			c-0.384,0.096-0.736,0.224-1.056,0.384c-1.248,0.608-1.92,0.864-2.016,0.768c-0.032-0.031-0.024-0.064,0.024-0.096
			c0.048-0.031,0.104-0.072,0.168-0.12c0.064-0.048,0.144-0.104,0.24-0.168c1.632-0.832,3.12-1.648,4.464-2.448
			c0.736-0.48,1.2-0.727,1.392-0.744c0.192-0.016,0.544,0.152,1.056,0.504C19.396,28.198,19.38,28.23,19.317,28.261z M26.085,40.021
			c-0.032,0.416-0.2,0.984-0.504,1.704c-0.305,0.72-0.552,1.144-0.744,1.272c-0.192,0.096-0.528,0.016-1.008-0.24
			c-0.352-0.192-0.608-0.288-0.768-0.288c-0.16,0-0.384,0.064-0.672,0.192c-0.48,0.192-0.752,0.271-0.816,0.24
			c-0.065-0.032-0.065-0.224,0-0.576c0.096-0.512,0.224-1.248,0.384-2.208l0.144-0.576l1.44-0.096c1.376-0.031,2.152-0.031,2.328,0
			C26.044,39.478,26.116,39.67,26.085,40.021z M25.821,32.821c0.271,0.096,0.487,0.48,0.648,1.152
			c0.064,0.352,0.079,0.92,0.048,1.704c-0.032,0.784-0.096,1.24-0.192,1.368c-0.065,0.032-0.305-0.024-0.72-0.168
			c-0.416-0.144-0.713-0.192-0.888-0.144c-0.176,0.048-0.536,0.104-1.08,0.168l-0.816,0.144l0.336-0.912
			c0.192-0.607,0.304-1.008,0.336-1.2c0.128-0.672,0.24-1.104,0.336-1.296c0.096-0.192,0.288-0.368,0.576-0.528
			C25.077,32.821,25.548,32.725,25.821,32.821z M86.613,33.974c-0.161,0-0.24-0.144-0.24-0.432c0-0.288-0.232-0.6-0.696-0.936
			c-0.464-0.336-1.016-0.583-1.656-0.744c-1.76-0.48-2.928-0.72-3.504-0.72c-0.512,0-0.96-0.144-1.344-0.432
			c-0.672-0.511-1.184-0.592-1.536-0.24c-0.128,0.128-0.528,0.272-1.2,0.432l-0.96,0.192v-2.352
			c-0.032-1.568-0.112-3.552-0.24-5.952c-0.096-1.6-0.128-2.616-0.096-3.048c0.031-0.432,0.128-0.712,0.288-0.84
			c0.256-0.192,0.432-0.288,0.528-0.288c0.128,0,0.192-0.064,0.192-0.192c0.064-0.448-0.176-0.912-0.72-1.392
			c-0.448-0.415-0.672-0.84-0.672-1.272s-0.072-0.648-0.216-0.648c-0.144,0-0.216-0.256-0.216-0.768c0-0.703-0.209-1.744-0.624-3.12
			c-0.096-0.352-0.032-0.528,0.192-0.528c0.223,0,0.384-0.128,0.48-0.384c0.128-0.288,0.592-0.583,1.392-0.888
			c0.799-0.304,1.584-0.456,2.352-0.456c0.928-0.032,1.648-0.112,2.16-0.24c0.352-0.064,0.568-0.144,0.648-0.24
			c0.079-0.096,0.072-0.288-0.024-0.576c-0.065-0.384-0.368-0.832-0.912-1.344c-0.544-0.511-1.024-0.799-1.44-0.864
			c-0.449-0.096-0.809-0.224-1.08-0.384c-0.272-0.16-0.473-0.192-0.6-0.096c-0.128,0.096-0.576,0.032-1.344-0.192
			c-0.672-0.224-1.08-0.344-1.224-0.36c-0.144-0.016-0.248,0.04-0.312,0.168c-0.032,0.128-0.824,0.408-2.376,0.84
			c-1.552,0.432-3.176,0.824-4.872,1.176c-1.056,0.256-1.736,0.488-2.04,0.696c-0.305,0.208-0.504,0.6-0.6,1.176
			c-0.064,0.384-0.08,0.617-0.048,0.696c0.031,0.08,0.144,0.089,0.336,0.024c0.256-0.096,0.448-0.144,0.576-0.144
			c0.128,0,0.24-0.16,0.336-0.48l0.096-0.48l0.96,0.48c0.607,0.32,1.423,0.48,2.448,0.48c1.024,0,1.536,0.04,1.536,0.12
			c0,0.08-0.504,0.712-1.512,1.896c-1.008,1.184-1.512,1.92-1.512,2.208c0,0.288-0.08,0.432-0.24,0.432
			c-0.064,0-0.592,0.96-1.584,2.88c-0.992,1.92-1.632,3.248-1.92,3.984c-0.353,0.96-0.752,1.856-1.2,2.688
			c-0.288,0.576-0.432,1.04-0.432,1.392c0,0.992,0.416,2.273,1.248,3.84c0.416,0.736,0.608,1.12,0.576,1.152
			c-0.224,0.192-0.928,0.568-2.112,1.128c-1.184,0.56-1.872,0.84-2.064,0.84c-0.288,0-0.624,0.208-1.008,0.624
			c-0.384,0.416-0.544,0.944-0.48,1.584c0.032,0.641,0.272,1.224,0.72,1.752c0.448,0.528,0.912,0.809,1.392,0.84
			c0.448,0.032,0.799,0.112,1.056,0.24c0.48,0.192,1.456,0.328,2.928,0.408c1.471,0.08,3.008,0.056,4.608-0.072
			c1.728-0.096,2.712-0.12,2.952-0.072c0.24,0.048,0.344,0.713,0.312,1.992c-0.032,1.152-0.065,1.816-0.096,1.992
			c-0.032,0.176-0.16,0.264-0.384,0.264c-0.224,0-0.576-0.432-1.056-1.296c-0.064-0.16-0.136-0.304-0.216-0.432
			c-0.08-0.128-0.152-0.24-0.216-0.336c-0.064-0.096-0.12-0.184-0.168-0.264c-0.048-0.08-0.089-0.136-0.12-0.168l-0.048-0.048
			c-0.064,0.064,0,0.504,0.192,1.32c0.192,0.816,0.336,1.255,0.432,1.32c0.128,0.128,0.192,0.408,0.192,0.84
			s0.064,0.688,0.192,0.768c0.128,0.079,0.247,0.391,0.36,0.936c0.112,0.544,0.232,0.816,0.36,0.816
			c0.128,0,0.464,0.415,1.008,1.248c0.512,0.703,1.016,1.2,1.512,1.488c0.496,0.288,0.856,0.272,1.08-0.048
			c0.192-0.257,0.247-0.824,0.168-1.704c-0.08-0.881-0.136-2.633-0.168-5.256v-3.984l1.2-0.144c0.799-0.096,1.272-0.184,1.416-0.264
			c0.144-0.08,0.68-0.168,1.608-0.264c3.872-0.319,6.016-0.655,6.432-1.008c0.288-0.256,0.464-0.367,0.528-0.336
			c0.128,0.065,0.256,0.065,0.384,0c0.127-0.064,0.192-0.16,0.192-0.288C86.853,34.086,86.772,33.974,86.613,33.974z M63.237,23.605
			c-0.161,0.161-0.257,0.24-0.288,0.24c-0.032,0-0.048-0.079-0.048-0.24c0-0.224,0.096-0.496,0.288-0.816l0.288-0.48l0.048,0.48
			C63.588,23.11,63.492,23.382,63.237,23.605z M69.429,16.549c0.288-1.024,0.96-2.192,2.016-3.504
			c0.415-0.511,0.703-0.768,0.864-0.768c0.224,0.032,0.336,0.72,0.336,2.064v1.68l-0.96,0.24c-0.672,0.192-1.184,0.36-1.536,0.504
			c-0.352,0.144-0.576,0.216-0.672,0.216S69.364,16.837,69.429,16.549z M68.325,20.581c0.064-0.224,0.144-0.367,0.24-0.432
			c0.096-0.064,0.271-0.079,0.528-0.048c0.384,0.065,0.616,0.136,0.696,0.216c0.079,0.08-0.137,0.328-0.648,0.744
			c-0.416,0.32-0.689,0.449-0.816,0.384C68.196,21.382,68.196,21.094,68.325,20.581z M66.693,26.797
			c0.192-0.784,0.352-1.255,0.48-1.416c0.128-0.224,0.36-0.168,0.696,0.168s0.6,0.504,0.792,0.504
			c0.511,0.032,0.175,0.464-1.008,1.296c-0.736,0.512-1.128,0.744-1.176,0.696C66.429,27.997,66.501,27.582,66.693,26.797z
			 M72.021,32.821c-0.704,0.065-1.472,0.208-2.304,0.432c-0.544,0.128-0.977,0.176-1.296,0.144c-0.48-0.031-0.496-0.175-0.048-0.432
			c0.224-0.16,0.736-0.336,1.536-0.528c0.799-0.192,1.375-0.304,1.728-0.336c0.384,0,0.576,0.112,0.576,0.336
			C72.213,32.662,72.148,32.79,72.021,32.821z M72.357,28.885l-0.048,2.832l-0.72,0.048c-0.448,0.032-1.488,0.24-3.12,0.624
			c-2.88,0.704-5.072,1.04-6.576,1.008c-1.217-0.031-1.424-0.304-0.624-0.816c0.352-0.256,0.912-0.752,1.68-1.488
			c0.768-0.736,1.232-1.024,1.392-0.864c0.352,0.32,0.712,0.36,1.08,0.12c0.367-0.24,0.648-0.712,0.84-1.416
			c0.064-0.224,0.583-0.688,1.56-1.392c0.976-0.703,1.688-1.135,2.136-1.296c0.32-0.096,0.816-0.16,1.488-0.192h1.008L72.357,28.885
			z M72.693,21.974l-0.096,1.392l-1.584,0.096h-0.864c-0.192,0-0.336-0.008-0.432-0.024c-0.096-0.016-0.161-0.048-0.192-0.096
			c-0.032-0.048-0.032-0.12,0-0.216c0.096-0.224,0.216-0.336,0.36-0.336c0.144,0,0.295-0.192,0.456-0.576
			c0.16-0.384,0.352-0.576,0.576-0.576c0.224,0,0.336-0.08,0.336-0.24c0-0.16,0.192-0.319,0.576-0.48
			c0.384-0.16,0.576-0.328,0.576-0.504c0-0.176,0.072-0.192,0.216-0.048S72.789,21.046,72.693,21.974z M77.397,31.477
			c-0.065,0.161-0.368,0.32-0.912,0.48c-0.544,0.161-0.864,0.176-0.96,0.048c-0.096-0.096-0.096-0.271,0-0.528
			c0.096-0.256,0.416-0.352,0.96-0.288c0.544,0.064,0.816,0.024,0.816-0.12c0-0.144,0.04-0.175,0.12-0.096
			C77.5,31.054,77.493,31.222,77.397,31.477z M58.917,24.277c0-0.256,0.304-1.024,0.912-2.304c0.352-0.672,0.624-1.232,0.816-1.68
			c0.384-0.928,0.448-1.296,0.192-1.104c-0.192,0.096-0.288,0.256-0.288,0.48c0,0.192-0.152,0.6-0.456,1.224
			c-0.305,0.624-0.616,1.176-0.936,1.656c-0.256,0.384-0.576,0.896-0.96,1.536c-0.384,0.608-0.832,1.312-1.344,2.112
			c-0.512,0.832-0.816,1.248-0.912,1.248s-0.112-0.384-0.048-1.152c0.031-0.511,0.008-0.871-0.072-1.08
			c-0.08-0.208-0.312-0.504-0.696-0.888c-0.576-0.576-0.929-0.864-1.056-0.864c-0.128,0-0.488-0.264-1.08-0.792
			c-0.592-0.528-0.888-1.048-0.888-1.56c0.031-0.64,0.439-1.624,1.224-2.952c0.784-1.327,1.56-2.344,2.328-3.048
			c0.48-0.448,1.024-0.912,1.632-1.392c0.607-0.48,0.96-0.72,1.056-0.72c0.128,0,0.336-0.16,0.624-0.48
			c0.288-0.32,0.504-0.432,0.648-0.336c0.144,0.096,0.312-0.016,0.504-0.336c0.128-0.223,0.175-0.432,0.144-0.624
			c-0.032-0.192-0.176-0.496-0.432-0.912c-0.352-0.672-0.624-1.008-0.816-1.008c-0.192,0-0.288-0.072-0.288-0.216
			c0-0.144-0.256-0.264-0.768-0.36c-0.352-0.064-0.816-0.247-1.392-0.552C55.989,7.87,55.62,7.621,55.461,7.43
			c-0.065-0.064-0.521-0.192-1.368-0.384c-0.848-0.192-1.64-0.336-2.376-0.432c-0.704-0.096-1.152-0.048-1.344,0.144
			c-0.192,0.192-0.288,0.384-0.288,0.576c0,0.256,0.272,0.584,0.816,0.984c0.544,0.4,1.152,0.712,1.824,0.936
			c2.272,0.8,3.408,1.568,3.408,2.304c0,0.384-0.152,1.008-0.456,1.872c-0.305,0.864-0.569,1.424-0.792,1.68
			c-0.192,0.224-0.497,0.704-0.912,1.44c-0.416,0.737-1.056,1.568-1.92,2.496c-0.608,0.672-0.977,1.136-1.104,1.392
			c-0.128,0.256-0.192,0.641-0.192,1.152c0,1.28,0.672,2.384,2.016,3.312c0.352,0.256,0.576,0.456,0.672,0.6
			c0.096,0.144,0.112,0.36,0.048,0.648c-0.128,0.8-0.512,2.216-1.152,4.248c-0.641,2.033-1.073,3.208-1.296,3.528
			c-0.737,1.025-0.641,2.448,0.288,4.272c0.352,0.641,0.64,1.152,0.864,1.536c0.48,0.832,0.768,1.184,0.864,1.056
			c0.096-0.065,0.288,0.031,0.576,0.288c0.288,0.256,0.64,0.319,1.056,0.192c0.288-0.096,0.472-0.224,0.552-0.384
			c0.079-0.161,0.136-0.48,0.168-0.96c0.031-0.768-0.04-1.255-0.216-1.464c-0.176-0.208-0.28-0.919-0.312-2.136
			c0-0.736,0.031-1.296,0.096-1.68c0.064-0.384,0.224-0.848,0.48-1.392c0.415-0.864,0.688-1.632,0.816-2.304
			c0.096-0.607,0.376-1.512,0.84-2.712c0.464-1.2,0.888-2.104,1.272-2.712C58.74,24.949,58.917,24.534,58.917,24.277z
			 M119.253,49.19c0.288-0.257,0.496-1.097,0.624-2.52c0.128-1.424,0.176-2.472,0.144-3.144c-0.032-0.672,0.064-2.064,0.288-4.176
			c0.031-0.224,0.064-0.528,0.096-0.912c0.224-2.08,0.384-3.312,0.48-3.696c0.096-0.384,0.336-0.656,0.72-0.816
			c0.096-0.031,0.16-0.048,0.192-0.048c0.576-0.256,0.864-0.44,0.864-0.552c0-0.112,0.103-0.168,0.312-0.168
			c0.208,0,0.544-0.192,1.008-0.576c0.464-0.384,0.76-0.576,0.888-0.576c0.128,0,0.464-0.192,1.008-0.576
			c0.416-0.256,0.64-0.44,0.672-0.552c0.031-0.112-0.032-0.328-0.192-0.648c-0.192-0.448-0.536-0.76-1.032-0.936
			c-0.496-0.175-0.896-0.328-1.2-0.456c-0.305-0.128-0.752-0.288-1.344-0.48c-0.593-0.192-0.888-0.352-0.888-0.48
			c0-0.16,0.415-0.432,1.248-0.816c0.352-0.192,1.544-0.799,3.576-1.824c2.032-1.024,3.128-1.471,3.288-1.344
			c0.16,0.128,0.376,0.089,0.648-0.12c0.272-0.208,0.536-0.28,0.792-0.216c0.256,0.065,0.864-0.031,1.824-0.288
			c0.607-0.192,1-0.336,1.176-0.432c0.175-0.096,0.247-0.24,0.216-0.432c-0.224-1.248-2.384-2.4-6.48-3.456
			c-1.792-0.48-3.104-0.832-3.936-1.056c-0.833-0.224-2.057-0.352-3.672-0.384c-1.616-0.031-2.424-0.112-2.424-0.24
			c0-0.192,0.976-1.44,2.928-3.744c0.544-0.64,0.888-1.088,1.032-1.344c0.144-0.256,0.336-0.496,0.576-0.72
			c0.24-0.224,0.792-0.832,1.656-1.824l1.296-1.536l1.152,0.384c0.799,0.224,1.264,0.401,1.392,0.528
			c0.256,0.161,0.607,0.256,1.056,0.288c0.448,0.032,0.736-0.032,0.864-0.192c0.256-0.32,0.176-0.76-0.24-1.32
			c-0.416-0.56-1.024-1.048-1.824-1.464c-0.48-0.256-0.696-0.496-0.648-0.72c0.048-0.224,0.104-0.655,0.168-1.296
			c0.064-0.384,0.064-0.664,0-0.84c-0.065-0.175-0.224-0.391-0.48-0.648c-0.384-0.352-0.944-0.592-1.68-0.72
			c-0.48-0.064-0.816-0.072-1.008-0.024c-0.192,0.048-0.432,0.216-0.72,0.504c-0.192,0.192-0.32,0.336-0.384,0.432
			c-0.032,0.065-0.008,0.089,0.072,0.072c0.079-0.016,0.151-0.024,0.216-0.024c0.384,0,0.16,0.512-0.672,1.536
			c-0.512,0.672-0.92,1.064-1.224,1.176c-0.305,0.112-1.096,0.152-2.376,0.12c-0.352-0.031-0.608-0.031-0.768,0
			c-0.256,0.032-0.305,0.096-0.144,0.192c0.224,0.128,0.28,0.192,0.168,0.192c-0.113,0-0.936,0.152-2.472,0.456
			c-1.536,0.305-2.32,0.44-2.352,0.408c-0.032-0.031-0.096-0.64-0.192-1.824c-0.128-1.952-0.592-3.184-1.392-3.696
			c-0.224-0.16-0.377-0.232-0.456-0.216c-0.08,0.017-0.152,0.104-0.216,0.264c-0.096,0.224-0.096,0.448,0,0.672
			c0.064,0.192,0,0.953-0.192,2.28c-0.192,1.328-0.368,2.201-0.528,2.616c-0.16,0.352-0.424,0.6-0.792,0.744
			c-0.368,0.144-0.968,0.216-1.8,0.216c-0.544,0-0.977-0.12-1.296-0.36c-0.32-0.24-0.416-0.552-0.288-0.936
			c0.031-0.096,0.031-0.175,0-0.24c-0.096-0.288-0.401-0.24-0.912,0.144c-0.192,0.128-0.296,0.264-0.312,0.408
			c-0.017,0.144,0.04,0.424,0.168,0.84c0.16,0.641,0.487,1.088,0.984,1.344c0.496,0.257,1.272,0.384,2.328,0.384l1.584-0.048
			l0.192,1.056c0.192,1.312,0.752,2.4,1.68,3.264c0.288,0.288,0.504,0.456,0.648,0.504c0.144,0.048,0.344,0.016,0.6-0.096
			c0.256-0.112,0.416-0.256,0.48-0.432c0.064-0.175,0.096-0.52,0.096-1.032c0-0.799,0.144-1.456,0.432-1.968
			c0.223-0.352,0.336-0.56,0.336-0.624c0-0.031-0.096-0.016-0.288,0.048c-0.352,0.128-0.576,0.176-0.672,0.144
			c-0.096-0.031-0.128-0.192-0.096-0.48c0.064-0.384,0.144-0.624,0.24-0.72c0.128-0.128,1.016-0.376,2.664-0.744
			c1.648-0.367,2.616-0.536,2.904-0.504l0.528,0.048l-0.672,1.008c-0.448,0.704-1.056,1.472-1.824,2.304
			c-1.28,1.505-2.273,2.816-2.976,3.936c-0.288,0.416-0.576,0.784-0.864,1.104c-0.288,0.32-0.864,1-1.728,2.04
			c-0.864,1.04-1.44,1.721-1.728,2.04c-0.288,0.32-0.624,0.808-1.008,1.464c-0.384,0.656-0.744,1.168-1.08,1.536
			c-0.336,0.368-0.784,0.92-1.344,1.656c-0.56,0.737-0.896,1.104-1.008,1.104c-0.112,0-0.168,0.113-0.168,0.336
			c0,0.224-0.072,0.336-0.216,0.336c-0.144,0-0.8,0.68-1.968,2.04c-1.169,1.36-1.784,2.136-1.848,2.328
			c-0.032,0.224-0.136,0.336-0.312,0.336c-0.176,0-0.44,0.168-0.792,0.504c-0.352,0.336-0.528,0.424-0.528,0.264
			c0-0.16,0.12-0.336,0.36-0.528s0.328-0.384,0.264-0.576c-0.065-0.192,0.016-0.448,0.24-0.768c0.192-0.288,0.288-0.464,0.288-0.528
			c0-0.224-0.353,0.048-1.056,0.816c-0.608,0.641-1.264,1.248-1.968,1.824c-0.544,0.448-0.857,0.752-0.936,0.912
			c-0.08,0.161-0.089,0.497-0.024,1.008c0.096,0.704,0.175,1.28,0.24,1.728c0.096,1.12,0.352,2.16,0.768,3.12
			c0.16,0.384,0.312,0.616,0.456,0.696c0.144,0.079,0.448,0.12,0.912,0.12c0.464,0,0.816-0.072,1.056-0.216s0.696-0.552,1.368-1.224
			c0.96-0.96,1.44-1.495,1.44-1.608c0-0.112,0.656-0.96,1.968-2.544c1.312-1.584,2.04-2.504,2.184-2.76
			c0.144-0.256,0.472-0.72,0.984-1.392c0.48-0.672,1.072-1.488,1.776-2.448c0.736-0.96,1.312-1.784,1.728-2.472
			c0.415-0.688,0.736-1.088,0.96-1.2c0.223-0.112,0.336-0.247,0.336-0.408c0-0.16,0.408-0.792,1.224-1.896
			c0.816-1.104,1.416-1.832,1.8-2.184c0.799-0.703,2.128-1.184,3.984-1.44c1.183-0.16,2.416,0.161,3.696,0.96
			c0.32,0.192,0.88,0.432,1.68,0.72c1.92,0.672,2.928,1.073,3.024,1.2c0.031,0-0.008,0.056-0.12,0.168
			c-0.112,0.113-0.281,0.24-0.504,0.384c-0.224,0.144-0.48,0.32-0.768,0.528c-0.288,0.208-0.624,0.424-1.008,0.648
			c-0.384,0.224-0.785,0.464-1.2,0.72c-0.641,0.384-1.648,0.992-3.024,1.824c-1.344,0.864-2.088,1.208-2.232,1.032
			c-0.144-0.176-0.296-0.848-0.456-2.016c-0.16-1.168-0.448-2.056-0.864-2.664c-0.384-0.607-0.656-0.912-0.816-0.912
			c-0.256,0-0.416,1.344-0.48,4.032c0,0.224-0.016,0.544-0.048,0.96c0,1.376-0.104,2.24-0.312,2.592
			c-0.208,0.352-0.936,0.928-2.184,1.728c-0.352,0.224-0.624,0.416-0.816,0.576c-1.505,0.96-2.312,1.344-2.424,1.152
			c-0.112-0.192-0.216-0.176-0.312,0.048c-0.32,0.992-0.352,1.552-0.096,1.68c0.128,0.096,0.16,0.208,0.096,0.336
			c-0.065,0.128-0.032,0.384,0.096,0.768c0.128,0.384,0.48,0.624,1.056,0.72c0.576,0.096,1,0.216,1.272,0.36
			c0.271,0.144,0.832,0.136,1.68-0.024c0.848-0.16,1.336-0.144,1.464,0.048c0.224,0.288,0.176,1.28-0.144,2.976
			c-0.096,0.448-0.168,1.088-0.216,1.92c-0.048,0.832-0.152,1.44-0.312,1.824l-0.24,0.384c0-0.032-0.016-0.144-0.048-0.336
			c0-0.352-0.096-0.528-0.288-0.528c-0.768-0.032-1.52-0.16-2.256-0.384c-0.737-0.224-1.232-0.464-1.488-0.72
			c-0.256-0.256-0.432-0.352-0.528-0.288c-0.192,0.096-0.08,0.4,0.336,0.912c0.352,0.415,0.919,0.943,1.704,1.584
			c0.784,0.64,1.176,1.104,1.176,1.392c0,0.288,0.264,0.703,0.792,1.248c0.528,0.544,0.904,1.056,1.128,1.536
			c0.288,0.736,0.72,1.264,1.296,1.584C118.341,49.557,118.836,49.541,119.253,49.19z M120.501,28.693
			c0.192-0.224,0.352-0.312,0.48-0.264c0.128,0.048,0.304,0.264,0.528,0.648c0.256,0.448,0.48,0.672,0.672,0.672
			c0.128,0,0.192,0.032,0.192,0.096c0,0.192-0.336,0.432-1.008,0.72c-0.512,0.224-0.784,0.336-0.816,0.336
			c-0.128,0-0.192-0.336-0.192-1.008S120.405,28.822,120.501,28.693z M116.565,32.63l-0.672,0.24l0.48-0.624
			c0.128-0.16,0.24-0.271,0.336-0.336c0.352-0.352,0.528-0.288,0.528,0.192C117.237,32.326,117.012,32.502,116.565,32.63z
			 M105.717,46.885c0.288,0,0.552-0.377,0.792-1.128c0.24-0.752,0.391-1.656,0.456-2.712c0.064-0.832,0.208-1.504,0.432-2.016
			c0.096-0.224,0.2-0.552,0.312-0.984c0.112-0.432,0.192-0.823,0.24-1.176c0.048-0.352,0.048-0.528,0-0.528
			c-0.048,0-0.272,0.128-0.672,0.384c-0.401,0.257-0.768,0.704-1.104,1.344c-0.336,0.64-0.696,1.168-1.08,1.584
			c-0.416,0.448-0.744,1.024-0.984,1.728c-0.24,0.703-0.296,1.216-0.168,1.536c0.096,0.288,0.384,0.688,0.864,1.2
			C105.285,46.629,105.588,46.885,105.717,46.885z M125.445,41.245c0,0.144,0.096,0.28,0.288,0.408
			c0.256,0.192,0.656,0.336,1.2,0.432c0.544,0.096,1.024,0.256,1.44,0.48c0.288,0.192,0.496,0.288,0.624,0.288
			c0.127,0,0.336-0.08,0.624-0.24c0.416-0.256,0.592-0.56,0.528-0.912c-0.065-0.641-0.504-1.336-1.32-2.088
			c-0.816-0.751-1.672-1.255-2.568-1.512c-0.672-0.192-1.08-0.352-1.224-0.48c-0.144-0.128-0.521-0.192-1.128-0.192h-0.432
			c-0.288,0.032-0.272,0.112,0.048,0.24c0.32,0.128,0.576,0.256,0.768,0.384c0.896,0.737,1.384,1.176,1.464,1.32
			c0.08,0.144,0.04,0.473-0.12,0.984C125.508,40.805,125.445,41.102,125.445,41.245z M145.509,43.045c0-0.224-0.08-0.336-0.24-0.336
			c-0.161,0-0.24,0.112-0.24,0.336c0,0.224,0.079,0.336,0.24,0.336C145.428,43.381,145.509,43.269,145.509,43.045z M179.109,44.198
			c0.192,0.192,0.367,0.432,0.528,0.72c0.16,0.32,0.536,0.656,1.128,1.008c0.592,0.352,1.144,0.56,1.656,0.624
			c0.384,0.064,0.664,0.064,0.84,0c0.175-0.065,0.408-0.24,0.696-0.528c0.288-0.288,0.464-0.528,0.528-0.72
			c0.064-0.192,0.079-0.528,0.048-1.008c-0.064-1.12-0.544-2.96-1.44-5.52c-0.448-1.248-0.632-1.96-0.552-2.136
			c0.08-0.176,0.048-0.312-0.096-0.408c-0.144-0.096-0.192-0.296-0.144-0.6c0.048-0.304-0.008-0.456-0.168-0.456
			c-0.096,0.032-0.176-0.072-0.24-0.312c-0.065-0.24-0.113-0.664-0.144-1.272c-0.032-0.352-0.096-0.528-0.192-0.528
			c-0.096,0-0.128-0.128-0.096-0.384c0.256-1.312,0.319-2.08,0.192-2.304c-0.096-0.16-0.12-0.511-0.072-1.056
			c0.048-0.544-0.008-0.816-0.168-0.816c-0.032,0-0.056-0.072-0.072-0.216c-0.017-0.144-0.024-0.36-0.024-0.648
			c0-0.288,0.016-0.656,0.048-1.104c0.031-0.448,0.079-0.992,0.144-1.632c0.064-0.832,0.024-1.248-0.12-1.248
			s-0.216-0.272-0.216-0.816c0-0.384-0.032-0.607-0.096-0.672c-0.065-0.031-0.144,0.176-0.24,0.624
			c-0.065,0.352-0.24,0.968-0.528,1.848c-0.288,0.88-0.521,1.72-0.696,2.52c-0.176,0.8-0.432,1.712-0.768,2.736
			c-0.336,1.024-0.632,1.968-0.888,2.832c-0.384,1.376-0.672,1.664-0.864,0.864c-0.096-0.415-0.305-0.847-0.624-1.296
			c-0.672-0.895-1.096-1.615-1.272-2.16c-0.176-0.544-0.168-1.008,0.024-1.392c0.16-0.256,0.528-1.04,1.104-2.352
			c0.576-1.216,0.888-2.16,0.936-2.832c0.048-0.672-0.137-1.2-0.552-1.584c-0.288-0.224-0.536-0.368-0.744-0.432
			c-0.208-0.064-0.36-0.04-0.456,0.072c-0.096,0.113-0.112,0.312-0.048,0.6c0,0.128-0.065,0.272-0.192,0.432
			c-0.128,0.16-0.24,0.472-0.336,0.936c-0.096,0.464-0.416,1.096-0.96,1.896c-0.352,0.544-0.584,0.864-0.696,0.96
			c-0.112,0.096-0.248,0.065-0.408-0.096c-0.256-0.224-0.464-0.64-0.624-1.248c-0.384-1.344-1.04-2.96-1.968-4.848
			c-0.641-1.344-0.96-2.128-0.96-2.352c0-0.384,0.384-0.576,1.152-0.576c0.256,0,0.48-0.192,0.672-0.576
			c0.128-0.256,0.16-0.448,0.096-0.576c-0.065-0.128-0.257-0.336-0.576-0.624c-0.512-0.416-0.944-0.624-1.296-0.624
			c-0.384,0-0.704-0.112-0.96-0.336c-0.256-0.224-0.56-0.656-0.912-1.296l-0.624-1.056l0.528-0.432
			c0.352-0.256,0.672-0.464,0.96-0.624c0.991-0.48,1.936-1.2,2.832-2.16c0.512-0.544,0.872-0.864,1.08-0.96
			c0.208-0.096,0.616-0.144,1.224-0.144c0.928,0,1.528-0.055,1.8-0.168c0.271-0.112,0.36-0.328,0.264-0.648
			c-0.161-0.768-0.752-1.376-1.776-1.824c-0.288-0.128-0.48-0.256-0.576-0.384c-0.096-0.128-0.144-0.336-0.144-0.624
			c0-0.544-0.136-1.128-0.408-1.752c-0.272-0.624-0.632-1.144-1.08-1.56c-0.512-0.448-0.857-0.672-1.032-0.672
			c-0.176,0-0.376-0.048-0.6-0.144c-0.224-0.096-0.384-0.064-0.48,0.096c-0.032,0.128,0.112,0.208,0.432,0.24
			c0.192,0,0.36,0.065,0.504,0.192c0.144,0.128,0.312,0.384,0.504,0.768c0.256,0.544,0.367,1.104,0.336,1.68
			c-0.032,0.576-0.192,0.864-0.48,0.864c-0.224,0-0.496,0.104-0.816,0.312c-0.32,0.208-0.672,0.312-1.056,0.312
			c-0.353,0-1.193,0.152-2.52,0.456c-1.328,0.305-2.472,0.584-3.432,0.84c-0.8,0.256-1.265,0.344-1.392,0.264
			c-0.128-0.079-0.256-0.552-0.384-1.416c-0.192-1.152-0.608-2-1.248-2.544c-0.288-0.224-0.432-0.416-0.432-0.576
			c0-0.16-0.112-0.288-0.336-0.384c-0.096,0-0.161-0.008-0.192-0.024c-0.032-0.016-0.056,0-0.072,0.048
			c-0.016,0.048-0.024,0.104-0.024,0.168l0.096,0.384c0.32,1.44,0.352,2.816,0.096,4.128l-0.24,1.008l-1.632,0.432
			c-1.056,0.288-1.76,0.336-2.112,0.144c-0.641-0.352-1.08-0.336-1.32,0.048s-0.152,0.96,0.264,1.728
			c0.384,0.704,0.744,1.144,1.08,1.32c0.336,0.176,0.808,0.2,1.416,0.072c0.672-0.128,1.112-0.136,1.32-0.024
			c0.208,0.112,0.36,0.44,0.456,0.984c0.096,0.608,0.384,1.168,0.864,1.68c0.64,0.641,1.12,0.84,1.44,0.6
			c0.319-0.24,0.592-1,0.816-2.28c0.192-1.12,0.304-1.8,0.336-2.04c0.031-0.24,0.592-0.448,1.68-0.624
			c1.088-0.176,2.072-0.36,2.952-0.552c0.88-0.192,1.384-0.224,1.512-0.096c0.064,0.065-0.152,0.36-0.648,0.888
			c-0.497,0.528-1.16,1.144-1.992,1.848c-0.833,0.704-1.648,1.328-2.448,1.872c-0.672,0.48-1.04,0.768-1.104,0.864
			c-0.192,0.224-0.984,0.768-2.376,1.632c-1.392,0.864-2.216,1.312-2.472,1.344c-0.352,0.096-0.617,0.272-0.792,0.528
			c-0.176,0.256-0.296,0.672-0.36,1.248c-0.065,0.544-0.112,0.833-0.144,0.864c0,0.096,0.032,0.185,0.096,0.264
			c0.064,0.08,0.128,0.104,0.192,0.072c0.064,0,0.104,0.024,0.12,0.072c0.016,0.048,0.024,0.12,0.024,0.216
			c0,0.192,0.2,0.328,0.6,0.408c0.4,0.08,0.856,0.072,1.368-0.024c0.607-0.064,0.912-0.048,0.912,0.048s-0.208,0.48-0.624,1.152
			c-0.48,0.864-1.232,2.32-2.256,4.368c-1.024,2.048-1.536,3.12-1.536,3.216c0,0.16-0.096,0.384-0.288,0.672
			c-0.128,0.192-0.232,0.288-0.312,0.288c-0.08,0-0.264-0.079-0.552-0.24c-0.737-0.511-1.6-0.624-2.592-0.336
			c-0.096,0.032-0.192,0.056-0.288,0.072c-0.096,0.016-0.176,0.016-0.24,0c-0.065-0.016-0.096-0.04-0.096-0.072
			c0-0.256,0.456-0.688,1.368-1.296c0.912-0.608,1.576-0.912,1.992-0.912c0.256,0,0.384-0.064,0.384-0.192
			c0-0.128,0.288-0.4,0.864-0.816c0.48-0.319,0.751-0.583,0.816-0.792c0.064-0.208-0.032-0.44-0.288-0.696
			c-0.16-0.16-0.528-0.232-1.104-0.216c-0.576,0.016-1.056,0.12-1.44,0.312c-0.096,0.065-0.16,0.096-0.192,0.096
			c-0.096-0.031,0.031-0.352,0.384-0.96c0.256-0.48,0.4-0.816,0.432-1.008c0.031-0.192-0.016-0.432-0.144-0.72
			c-0.288-0.703-0.864-1.056-1.728-1.056c-0.352,0-0.616,0.2-0.792,0.6c-0.176,0.401-0.136,0.68,0.12,0.84
			c0.192,0.128,0.096,0.48-0.288,1.056c-0.353,0.545-0.8,1.088-1.344,1.632c-0.545,0.544-0.96,0.864-1.248,0.96
			c-0.224,0.065-0.36,0.336-0.408,0.816c-0.048,0.48,0.04,0.896,0.264,1.248c0.096,0.192,0.208,0.312,0.336,0.36
			c0.128,0.048,0.367,0.04,0.72-0.024c0.192-0.031,0.336-0.048,0.432-0.048c0.96-0.031,0.256,0.72-2.112,2.256
			c-0.736,0.512-1.176,1.032-1.32,1.56c-0.144,0.528,0.055,0.92,0.6,1.176c0.288,0.128,0.464,0.24,0.528,0.336
			c0.064,0.096,0.064,0.256,0,0.48c-0.065,0.257-0.432,0.792-1.104,1.608c-0.672,0.816-1.088,1.224-1.248,1.224
			c-0.096,0-0.144,0.32-0.144,0.96c0,0.48,0.136,1.056,0.408,1.728c0.271,0.672,0.536,1.056,0.792,1.152
			c0.288,0.096,0.656-0.12,1.104-0.648c0.448-0.528,0.943-1.352,1.488-2.472c0.703-1.408,1.12-2.224,1.248-2.448
			c0.128-0.224,0.271-0.511,0.432-0.864c0.512-1.183,0.912-1.968,1.2-2.352c0.288-0.384,0.752-0.751,1.392-1.104l1.248-0.672
			l-0.672,1.344c-0.416,0.896-0.672,1.376-0.768,1.44c-0.065,0.065-0.392,0.68-0.984,1.848c-0.592,1.169-0.888,1.8-0.888,1.896
			c0,0.065-0.192,0.384-0.576,0.96c-0.352,0.608-0.8,1.36-1.344,2.256c-0.48,0.736-1,1.408-1.56,2.016
			c-0.56,0.607-1.016,0.992-1.368,1.152c-0.353,0.128-0.528,0.288-0.528,0.48c0,0.288,0.175,0.76,0.528,1.416
			c0.352,0.656,0.64,1.064,0.864,1.224c0.48,0.319,1,0.36,1.56,0.12c0.56-0.24,1.016-0.696,1.368-1.368
			c0.192-0.384,0.415-0.616,0.672-0.696c0.256-0.08,0.528-0.36,0.816-0.84c0.512-0.96,1.279-2.448,2.304-4.464
			c1.024-2.016,1.536-3.088,1.536-3.216c0-0.192,0.216-0.703,0.648-1.536c0.432-0.832,0.648-1.312,0.648-1.44
			c0-0.096,0.208-0.584,0.624-1.464c0.415-0.88,0.751-1.56,1.008-2.04c0.064-0.096,0.128-0.168,0.192-0.216
			c0.064-0.048,0.112-0.079,0.144-0.096c0.031-0.016,0.064-0.008,0.096,0.024c0.128,0.192,0.048,1.328-0.24,3.408
			c-0.288,2.081-0.544,3.392-0.768,3.936c-0.128,0.384-0.137,0.672-0.024,0.864c0.112,0.192,0.184,0.497,0.216,0.912
			c0.031,0.353,0.168,0.824,0.408,1.416c0.24,0.592,0.424,0.888,0.552,0.888c0.128,0,0.4,0.088,0.816,0.264
			c0.415,0.175,0.919,0.28,1.512,0.312c0.592,0.032,0.968,0.096,1.128,0.192c0.096,0.064,1-0.04,2.712-0.312
			c1.711-0.272,2.647-0.456,2.808-0.552c0.096-0.064,0.384-0.128,0.864-0.192c0.768-0.128,2-0.544,3.696-1.248
			c0.384-0.16,0.648-0.408,0.792-0.744s0.088-0.648-0.168-0.936c-0.192-0.224-0.665-0.504-1.416-0.84
			c-0.752-0.336-1.128-0.608-1.128-0.816c0-0.208,0.256-0.424,0.768-0.648c0.96-0.384,1.824-1.2,2.592-2.448l0.384-0.624
			l0.336,0.768c0.224,0.48,0.36,0.864,0.408,1.152c0.048,0.288,0.168,0.544,0.36,0.768c0.256,0.32,0.496,0.704,0.72,1.152
			c0.224,0.449,0.336,0.785,0.336,1.008c0,0.256,0.088,0.472,0.264,0.648c0.176,0.176,0.151,0.44-0.072,0.792
			c-0.128,0.257-0.152,0.464-0.072,0.624c0.079,0.161,0.36,0.48,0.84,0.96c0.672,0.703,1.056,1.248,1.152,1.632
			c0.064,0.288,0.247,0.696,0.552,1.224C178.668,43.597,178.917,43.973,179.109,44.198z M160.125,16.813
			c0.72-0.4,1.176-0.696,1.368-0.888c0.448-0.415,1.312-1.048,2.592-1.896c1.28-0.847,2.016-1.288,2.208-1.32
			c0.096,0,0.192,0.128,0.288,0.384c0.256,0.672,0.175,0.977-0.24,0.912c-0.257,0-0.56,0.056-0.912,0.168
			c-0.352,0.113-0.424,0.224-0.216,0.336c0.208,0.113,0.192,0.168-0.048,0.168s-0.44,0.104-0.6,0.312
			c-0.161,0.208-0.473,0.36-0.936,0.456c-0.464,0.096-1,0.384-1.608,0.864c-0.608,0.48-1.145,0.776-1.608,0.888
			c-0.464,0.112-0.744,0.232-0.84,0.36c-0.032,0.065-0.096,0.12-0.192,0.168c-0.096,0.048-0.176,0.056-0.24,0.024
			c-0.065-0.032-0.096-0.08-0.096-0.144C159.045,17.478,159.405,17.214,160.125,16.813z M164.133,30.397
			c-0.704,0.624-1.392,1.145-2.064,1.56c-0.833,0.512-1.296,1.008-1.392,1.488c-0.096,0.512-0.089,0.944,0.024,1.296
			c0.112,0.352,0.312,0.528,0.6,0.528c0.192,0,0.296,0.017,0.312,0.048c0.016,0.032-0.056,0.144-0.216,0.336
			c-0.161,0.192-0.248,0.552-0.264,1.08c-0.017,0.528,0.055,0.92,0.216,1.176c-0.257,0.224-0.785,0.305-1.584,0.24
			c-0.224-0.031-0.352-0.128-0.384-0.288c-0.032-0.16-0.032-0.608,0-1.344c0.064-1.056,0.175-2.08,0.336-3.072
			c0.576-3.391,0.367-5.456-0.624-6.192c-0.16-0.128-0.208-0.304-0.144-0.528c0.064-0.223,0.288-0.72,0.672-1.488l0.864-1.776
			l0.432,0.528c0.288,0.352,0.656,0.576,1.104,0.672c0.448,0.096,0.952,0.065,1.512-0.096c0.56-0.16,0.888-0.192,0.984-0.096
			c0.064,0.065-0.032,0.352-0.288,0.864c-0.257,0.512-0.48,0.864-0.672,1.056c-0.161,0.161-0.449,0.377-0.864,0.648
			c-0.416,0.272-0.76,0.696-1.032,1.272c-0.272,0.576-0.36,1.072-0.264,1.488c0.064,0.448,0.271,0.72,0.624,0.816
			c0.352,0.096,0.703-0.016,1.056-0.336c0.16-0.16,0.384-0.336,0.672-0.528c0.96-0.64,1.44-0.832,1.44-0.576
			C165.189,29.365,164.836,29.773,164.133,30.397z M171.717,29.078c-0.128,0.32-0.6,0.92-1.416,1.8
			c-0.816,0.88-1.32,1.32-1.512,1.32c-0.192,0-0.36,0.288-0.504,0.864c-0.144,0.576-0.152,0.912-0.024,1.008
			c0.128,0.096,0.192,0.281,0.192,0.552c0,0.272,0.079,0.408,0.24,0.408c0.16,0,0.192,0.072,0.096,0.216s-0.288,0.216-0.576,0.216
			c-0.288,0-0.432,0.065-0.432,0.192c0,0.128-0.272,0.305-0.816,0.528c-0.416,0.161-0.672,0.233-0.768,0.216
			c-0.096-0.016-0.192-0.136-0.288-0.36c-0.128-0.288-0.161-0.688-0.096-1.2c0.064-0.319,0.16-0.559,0.288-0.72
			c0.128-0.16,0.4-0.336,0.816-0.528c0.672-0.352,1.024-0.592,1.056-0.72c0.064-0.16-0.128-0.424-0.576-0.792
			c-0.448-0.368-0.8-0.552-1.056-0.552c-0.48-0.032-0.32-0.384,0.48-1.056c0.511-0.352,1.024-0.847,1.536-1.488
			c0.511-0.64,0.768-1.088,0.768-1.344c0-0.256-0.168-0.544-0.504-0.864c-0.336-0.32-0.632-0.48-0.888-0.48
			c-0.352,0-0.6-0.072-0.744-0.216c-0.144-0.144-0.264-0.408-0.36-0.792c-0.065-0.48-0.144-0.895-0.24-1.248
			c-0.065-0.224-0.048-0.384,0.048-0.48c0.096-0.096,0.352-0.208,0.768-0.336c0.608-0.224,1.104-0.336,1.488-0.336
			c0.288,0,0.464-0.04,0.528-0.12c0.064-0.08,0.096-0.312,0.096-0.696c0-0.607-0.768-0.943-2.304-1.008
			c-0.768-0.031-1.248,0.065-1.44,0.288c-0.257,0.224-0.833,0.521-1.728,0.888c-0.896,0.368-1.512,0.552-1.848,0.552
			c-0.336,0-0.608-0.088-0.816-0.264c-0.208-0.176-0.281-0.376-0.216-0.6c0.096-0.224,0.432-0.688,1.008-1.392
			c0.448-0.544,1.112-1.072,1.992-1.584c0.88-0.511,1.576-0.768,2.088-0.768c0.352,0,0.64-0.064,0.864-0.192
			c0.319-0.224,0.576-0.247,0.768-0.072c0.192,0.176,0.48,0.696,0.864,1.56c0.544,1.12,1.08,2.48,1.608,4.08
			c0.528,1.6,0.96,2.824,1.296,3.672C171.789,28.078,171.876,28.693,171.717,29.078z M202.917,21.829
			c0.352-0.16,0.48-0.288,0.384-0.384c-0.096-0.064-0.336,0.008-0.72,0.216c-0.384,0.208-0.464,0.312-0.24,0.312
			C202.5,21.974,202.692,21.925,202.917,21.829z M232.941,28.069c-0.08-0.223-0.296-0.48-0.648-0.768
			c-0.48-0.448-0.96-0.784-1.44-1.008c-0.416-0.16-1.16-0.312-2.232-0.456c-1.073-0.144-2.024-0.216-2.856-0.216
			c-0.896,0.032-1.936,0.216-3.12,0.552c-1.184,0.336-1.856,0.648-2.016,0.936c-0.096,0.16-0.296,0.24-0.6,0.24
			c-0.305,0-0.456,0.072-0.456,0.216s-0.08,0.216-0.24,0.216c-0.161,0-0.48,0.176-0.96,0.528c-0.32,0.256-0.544,0.384-0.672,0.384
			c-0.128,0-0.368-0.096-0.72-0.288c-0.448-0.256-1.088-0.352-1.92-0.288c-1.409,0.096-2.496,0.8-3.264,2.112
			c-0.384,0.641-0.848,1.216-1.392,1.728c-0.416,0.416-0.656,0.608-0.72,0.576c-0.032,0-0.017-0.112,0.048-0.336l0.144-0.576
			l-0.624,0.576c-0.448,0.416-0.656,0.704-0.624,0.864c0,0.065,0.112,0.017,0.336-0.144c0.128-0.096,0.208-0.16,0.24-0.192
			c0.064,0,0.064,0.065,0,0.192c-0.064,0.224-0.368,0.512-0.912,0.864l-0.864,0.528l0.624-0.912c0.703-1.12,1.016-1.951,0.936-2.496
			c-0.08-0.544-0.568-0.96-1.464-1.248c-1.152-0.352-2.288-0.424-3.408-0.216c-1.121,0.208-2.561,0.744-4.32,1.608
			c-1.28,0.641-1.961,0.92-2.04,0.84c-0.08-0.08-0.152-0.648-0.216-1.704c-0.064-1.696,0.24-2.784,0.912-3.264
			c0.288-0.192,0.432-0.384,0.432-0.576s0.24-0.48,0.72-0.864c1.216-0.96,1.904-1.824,2.064-2.592
			c0.031-0.16,0.048-0.288,0.048-0.384c0-0.415-0.368-0.352-1.104,0.192c-0.384,0.32-0.536,0.552-0.456,0.696
			c0.079,0.144,0.04,0.257-0.12,0.336c-0.161,0.08-0.24,0.041-0.24-0.12c0-0.16-0.08-0.24-0.24-0.24c-0.161,0-0.24,0.137-0.24,0.408
			c0,0.272-0.128,0.488-0.384,0.648c-1.632,0.864-2.705,1.664-3.216,2.4c-0.672,0.864-1.008,1.808-1.008,2.832
			c-0.032,1.056-0.144,2.032-0.336,2.928c-0.065,0.288-0.112,0.768-0.144,1.44c0,0.416-0.032,0.704-0.096,0.864
			c-0.065,0.16-0.192,0.256-0.384,0.288c-0.224,0.065-0.352,0.152-0.384,0.264c-0.032,0.112-0.017,0.344,0.048,0.696
			c0.096,0.576,0.247,0.977,0.456,1.2c0.208,0.224,0.36,0.8,0.456,1.728c0.128,1.152,0.48,2.168,1.056,3.048
			c0.576,0.88,1.216,1.416,1.92,1.608c0.384,0.096,0.816,0.031,1.296-0.192c0.48-0.224,0.672-0.464,0.576-0.72
			c-0.065-0.192-0.008-0.504,0.168-0.936c0.175-0.432,0.168-0.704-0.024-0.816c-0.192-0.112-0.288-0.376-0.288-0.792
			c0-0.415-0.048-0.624-0.144-0.624c-0.096,0-0.16-0.208-0.192-0.624c-0.032-0.416-0.096-1.008-0.192-1.776
			c-0.065-0.544-0.065-0.919,0-1.128c0.064-0.208,0.256-0.504,0.576-0.888c0.352-0.448,0.992-0.968,1.92-1.56
			c0.928-0.592,1.632-0.952,2.112-1.08l0.672-0.192l-0.432,0.816c-0.32,0.512-0.76,0.96-1.32,1.344
			c-0.56,0.384-0.936,0.768-1.128,1.152c-0.192,0.384-0.464,0.656-0.816,0.816c-0.32,0.128-0.488,0.312-0.504,0.552
			c-0.017,0.24,0.104,0.68,0.36,1.32c0.224,0.608,0.336,1.128,0.336,1.56s0.151,0.648,0.456,0.648c0.304,0,0.456,0.08,0.456,0.24
			c0,0.096,0.064,0.16,0.192,0.192c0.48,0.128,1.008-0.065,1.584-0.576c0.448-0.384,0.752-0.576,0.912-0.576
			c0.16,0,0.752-0.376,1.776-1.128c1.024-0.752,1.776-1.352,2.256-1.8c0.48-0.511,0.72-0.895,0.72-1.152
			c0-0.256,0.344-0.792,1.032-1.608c0.688-0.816,1.16-1.544,1.416-2.184c0.256-0.64,0.496-0.96,0.72-0.96
			c0.224,0,0.592-0.192,1.104-0.576c0.511-0.384,0.864-0.576,1.056-0.576s0.32,0.208,0.384,0.624
			c0.064,0.416,0.031,0.848-0.096,1.296c-0.128,0.512-0.144,1-0.048,1.464c0.096,0.464,0.367,1.128,0.816,1.992
			c0.799,1.536,1.615,2.016,2.448,1.44c0.319-0.224,0.448-0.592,0.384-1.104c-0.065-0.352-0.048-1.087,0.048-2.208
			c0.096-1.12,0.223-1.968,0.384-2.544c0.096-0.384,0.352-0.799,0.768-1.248c0.384-0.415,1.032-0.864,1.944-1.344
			c0.912-0.48,1.576-0.72,1.992-0.72c0.448,0,1.44-0.031,2.976-0.096c0.768-0.031,1.375-0.048,1.824-0.048
			c1.056,0.065,1.279,0.32,0.672,0.768c-0.353,0.224-0.728,0.68-1.128,1.368c-0.4,0.688-0.784,1.152-1.152,1.392
			c-0.368,0.24-0.536,0.448-0.504,0.624c0.031,0.176-0.144,0.392-0.528,0.648c-0.672,0.416-1.728,1.216-3.168,2.4
			c-0.512,0.448-1.024,0.737-1.536,0.864c-0.384,0.128-0.608,0.264-0.672,0.408c-0.064,0.144-0.08,0.584-0.048,1.32
			c0.031,1.664,0.384,2.64,1.056,2.928c0.32,0.096,1.128,0.065,2.424-0.096c1.296-0.16,2.28-0.367,2.952-0.624
			c0.736-0.256,1.072-0.6,1.008-1.032c-0.065-0.432-0.497-0.823-1.296-1.176l-0.912-0.432l0.48-0.48
			c0.352-0.319,0.72-0.583,1.104-0.792c0.384-0.208,0.68-0.456,0.888-0.744c0.208-0.288,0.392-0.432,0.552-0.432
			c0.224,0,0.968-0.448,2.232-1.344c1.264-0.896,2.088-1.568,2.472-2.016c0.256-0.319,0.384-0.895,0.384-1.728
			C233.061,28.678,233.02,28.294,232.941,28.069z M203.973,17.102c0,0.305,0.12,0.456,0.36,0.456c0.24,0,0.36,0.176,0.36,0.528
			c0,0.352,0.112,0.72,0.336,1.104c0.224,0.384,0.328,0.672,0.312,0.864c-0.017,0.192-0.152,0.336-0.408,0.432
			c-0.32,0.096-0.432,0.216-0.336,0.36c0.096,0.144,0.247,0.176,0.456,0.096c0.208-0.079,0.6,0.2,1.176,0.84
			c0.511,0.544,1.08,0.936,1.704,1.176c0.624,0.24,1.016,0.216,1.176-0.072c0.127-0.224,0.295-0.336,0.504-0.336
			c0.208,0,0.344-0.304,0.408-0.912c0.064-0.384,0.151-0.64,0.264-0.768c0.112-0.128,0.376-0.256,0.792-0.384
			c1.056-0.352,2.064-0.672,3.024-0.96c1.184-0.384,1.928-0.656,2.232-0.816c0.304-0.16,0.456-0.384,0.456-0.672
			c0-0.703-0.864-1.2-2.592-1.488c-0.256-0.031-0.44-0.08-0.552-0.144c-0.112-0.064-0.16-0.16-0.144-0.288
			c0.016-0.128,0.104-0.28,0.264-0.456c0.16-0.176,0.4-0.408,0.72-0.696c0.832-0.736,1.303-1.12,1.416-1.152
			c0.112-0.031,0.232-0.048,0.36-0.048c0.224-0.031,0.744-0.432,1.56-1.2s1.448-1.44,1.896-2.016
			c1.088-1.471,1.424-2.704,1.008-3.696c-0.192-0.448-0.792-0.88-1.8-1.296c-1.008-0.416-1.848-0.576-2.52-0.48
			c-0.48,0.096-1.128,0.264-1.944,0.504c-0.816,0.24-1.385,0.44-1.704,0.6c-0.256,0.161-0.496,0.24-0.72,0.24
			c-0.224,0-0.672,0.144-1.344,0.432c-0.641,0.288-1.104,0.392-1.392,0.312c-0.288-0.079-0.544-0.376-0.768-0.888
			c-0.32-0.768-1.073-1.296-2.256-1.584c-0.448-0.128-0.857,0.016-1.224,0.432c-0.368,0.416-0.608,1.024-0.72,1.824
			c-0.113,0.8-0.209,1.272-0.288,1.416c-0.08,0.144-0.152,0.536-0.216,1.176c-0.065,0.608-0.128,1.344-0.192,2.208
			c-0.065,0.864-0.144,1.776-0.24,2.736c-0.096,0.96-0.024,1.56,0.216,1.8C203.853,16.526,203.973,16.798,203.973,17.102z
			 M208.941,13.214c0.08-1.776,0.216-2.76,0.408-2.952c0.192-0.256,0.607-0.552,1.248-0.888c0.64-0.336,0.992-0.535,1.056-0.6
			c0.096-0.128,1.135-0.576,3.12-1.344c0.48-0.16,0.968-0.296,1.464-0.408c0.496-0.112,0.904-0.168,1.224-0.168
			c0.319,0,0.48,0.064,0.48,0.192c0,0.161-0.192,0.521-0.576,1.08c-0.384,0.56-0.576,0.896-0.576,1.008
			c0,0.112-0.665,0.848-1.992,2.208c-1.328,1.36-1.992,2.12-1.992,2.28c0,0.161-0.056,0.216-0.168,0.168
			c-0.112-0.048-0.696,0.408-1.752,1.368c-0.896,0.8-1.488,1.104-1.776,0.912C208.917,15.942,208.86,14.99,208.941,13.214z
			 M210.885,30.277c-0.096,0.096-0.192,0.208-0.288,0.336c-0.512,0.768-0.672,1.152-0.48,1.152c0.064,0,0.384-0.352,0.96-1.056
			c0.384-0.448,0.576-0.768,0.576-0.96C211.684,29.461,211.428,29.638,210.885,30.277z M34.004,71.18h4.02v-0.99h-4.02v-6.21h-1.02
			v6.21h-4.83v0.99h4.77c-0.96,4.32-2.73,8.19-5.25,11.58l0.45,1.05c2.13-2.94,3.75-6.3,4.86-10.08v17.309h1.02V74.54
			c1.11,1.32,2.46,3.18,4.02,5.55l0.57-0.87c-1.56-2.22-3.09-4.14-4.59-5.82V71.18z M41.174,82.13h11.43v-9.54h-11.43v-6h12.69
			v-1.02h-13.71v24.479h14.339v-0.99H41.174V82.13z M41.174,73.58h10.44v7.59h-10.44V73.58z M75.674,67.79
			c1.5,1.62,2.97,3.42,4.41,5.37c-5.64,0.6-12,1.02-19.019,1.29c3.06-2.1,6.18-5.46,9.36-10.14l-0.99-0.36
			c-3.69,5.49-7.14,9.03-10.38,10.59l0.21,0.96c7.98-0.33,15.149-0.78,21.539-1.38c0.84,1.14,1.65,2.37,2.49,3.66l0.96-0.48
			c-2.34-3.6-4.89-6.93-7.65-9.99L75.674,67.79z M61.694,91.189h1.02v-1.92h17.219v1.92h1.02V79.1H61.694V91.189z M62.714,80.09
			h17.219v8.16H62.714V80.09z M107.474,67.1h5.37v-1.02H89.894v1.02h5.85v7.5c0,0.54-0.03,1.08-0.03,1.65h-7.5v0.99h7.44
			c-0.18,2.82-0.66,5.19-1.41,7.14c-1.14,2.52-2.94,4.44-5.4,5.79l0.6,0.9c2.58-1.44,4.41-3.39,5.55-5.85
			c0.9-2.1,1.47-4.74,1.68-7.98h9.78v13.77h1.02V77.24h6.99v-0.99h-6.99V67.1z M106.454,76.25h-9.72c0-0.54,0.03-1.08,0.03-1.65
			v-7.5h9.69V76.25z M130.814,63.831l-1.08,0.18c0.72,1.17,1.35,2.49,1.89,3.96h-10.02v8.82c-0.03,5.64-1.41,10.23-4.11,13.769
			l0.75,0.69c2.82-3.93,4.29-8.64,4.38-14.099h19.469v-9.18h-9.42C132.074,66.41,131.474,65.03,130.814,63.831z M141.044,76.16
			h-18.419v-7.14h18.419V76.16z M155.924,83c-2.04,2.4-4.56,4.5-7.56,6.3l0.63,0.84c3.06-1.86,5.61-4.02,7.68-6.48L155.924,83z
			 M166.454,82.76l-0.72,0.66c3.21,2.4,5.79,4.68,7.71,6.9l0.75-0.75C172.093,87.289,169.514,85.04,166.454,82.76z M172.033,82.79
			l0.84-0.6c-1.29-2.1-3.15-4.56-5.61-7.38l-0.78,0.48c0.99,1.14,1.92,2.28,2.76,3.39c-4.14,0.48-9.27,0.84-15.389,1.14
			c4.26-1.92,9.21-5.43,14.819-10.529l-0.96-0.48c-1.56,1.38-3.06,2.67-4.53,3.87c-3,0.21-6,0.39-9.03,0.57
			c2.28-1.26,4.65-3.3,7.11-6.09c4.08-0.36,7.65-0.93,10.68-1.74l-0.54-0.9c-5.37,1.38-12.359,2.1-20.999,2.13l0.3,0.93
			c3.3,0,6.36-0.12,9.24-0.33c-2.58,2.82-4.92,4.74-7.02,5.76c-0.24,0.09-0.51,0.15-0.75,0.18l0.24,0.96
			c3.45-0.18,6.66-0.36,9.66-0.6c-3.72,2.85-7.02,4.89-9.96,6.12c-0.3,0.09-0.6,0.15-0.96,0.21l0.3,0.93
			c3.54-0.15,6.78-0.33,9.72-0.51v8.52c0,0.87-0.48,1.32-1.41,1.32c-1.02,0-2.07-0.03-3.15-0.06l0.21,0.99h3.3
			c1.35,0,2.04-0.66,2.04-1.98v-8.85c2.91-0.21,5.49-0.45,7.74-0.69C170.714,80.66,171.434,81.74,172.033,82.79z M187.784,85.13
			c-2.73,1.38-5.91,2.49-9.54,3.33l0.15,1.02c3.48-0.84,6.63-1.98,9.39-3.36V85.13z M188.954,75.44l-0.21,0.09l0.24,0.96
			c4.38-0.36,8.49-0.87,12.269-1.47c0.6,0.9,1.14,1.8,1.62,2.67l0.78-0.6c-1.14-2.01-2.82-4.38-4.98-7.11l-0.78,0.51
			c0.99,1.26,1.92,2.46,2.76,3.66c-3.42,0.6-6.87,1.02-10.35,1.29c1.2-1.2,2.67-3.51,4.35-6.93h9.3v-0.99h-7.02
			c-0.54-1.47-1.08-2.76-1.65-3.9l-1.02,0.18c0.6,1.08,1.14,2.34,1.62,3.72h-8.19v0.99h5.91
			C191.684,72.29,190.124,74.6,188.954,75.44z M203.533,88.699c-0.18,0.6-0.72,0.93-1.62,0.93h-2.34c-0.63,0-0.93-0.45-0.93-1.29
			V78.05h-0.99v10.38c0,1.44,0.63,2.19,1.92,2.19h2.4c1.14-0.03,1.92-0.36,2.28-0.99c0.33-0.69,0.51-2.4,0.51-5.16l-0.9-0.33
			C203.863,86.36,203.743,87.889,203.533,88.699z M190.424,86.03c-0.81,1.65-2.16,3.06-4.05,4.23l0.66,0.81
			c2.01-1.26,3.45-2.79,4.32-4.62c0.84-1.74,1.32-4.5,1.44-8.22h-1.02C191.654,81.77,191.204,84.35,190.424,86.03z M183.704,64.01
			c-1.38,3.96-3.03,7.32-4.95,10.14c-0.15,0.18-0.3,0.33-0.45,0.39l0.27,0.99c1.86-0.3,3.87-0.72,5.97-1.23
			c-2.04,3.6-3.84,6.18-5.34,7.74c-0.15,0.12-0.3,0.24-0.48,0.3l0.27,1.02c2.85-0.54,5.79-1.41,8.79-2.67V79.7
			c-2.46,1.08-4.95,1.89-7.53,2.49c1.92-2.07,4.44-6,7.5-11.76l-0.93-0.36l-1.68,3.18c-1.89,0.54-3.75,0.93-5.55,1.17
			c1.68-2.31,3.39-5.64,5.07-9.99L183.704,64.01z"/>
	</g>
</g>
</svg>
